<svg xmlns="http://www.w3.org/2000/svg" xmlns:xlink="http://www.w3.org/1999/xlink" version="1.0" x="0" y="0" width="2400" height="601.5428725562144" viewBox="31.978697509765624 90.40594360351562 276.04260498046875 69.18810897827149" preserveAspectRatio="xMidYMid meet" color-interpolation-filters="sRGB"><g><defs><linearGradient id="92" x1="0%" y1="0%" x2="100%" y2="0%"><stop offset="0%" stop-color="#fa71cd"></stop> <stop offset="100%" stop-color="#9b59b6"></stop></linearGradient><linearGradient id="93" x1="0%" y1="0%" x2="100%" y2="0%"><stop offset="0%" stop-color="#f9d423"></stop> <stop offset="100%" stop-color="#f83600"></stop></linearGradient><linearGradient id="94" x1="0%" y1="0%" x2="100%" y2="0%"><stop offset="0%" stop-color="#0064d2"></stop> <stop offset="100%" stop-color="#1cb0f6"></stop></linearGradient><linearGradient id="95" x1="0%" y1="0%" x2="100%" y2="0%"><stop offset="0%" stop-color="#f00978"></stop> <stop offset="100%" stop-color="#3f51b1"></stop></linearGradient><linearGradient id="96" x1="0%" y1="0%" x2="100%" y2="0%"><stop offset="0%" stop-color="#7873f5"></stop> <stop offset="100%" stop-color="#ec77ab"></stop></linearGradient><linearGradient id="97" x1="0%" y1="0%" x2="100%" y2="0%"><stop offset="0%" stop-color="#f9d423"></stop> <stop offset="100%" stop-color="#e14fad"></stop></linearGradient><linearGradient id="98" x1="0%" y1="0%" x2="100%" y2="0%"><stop offset="0%" stop-color="#009efd"></stop> <stop offset="100%" stop-color="#2af598"></stop></linearGradient><linearGradient id="99" x1="0%" y1="0%" x2="100%" y2="0%"><stop offset="0%" stop-color="#ffcc00"></stop> <stop offset="100%" stop-color="#00b140"></stop></linearGradient><linearGradient id="100" x1="0%" y1="0%" x2="100%" y2="0%"><stop offset="0%" stop-color="#d51007"></stop> <stop offset="100%" stop-color="#ff8177"></stop></linearGradient><linearGradient id="102" x1="0%" y1="0%" x2="100%" y2="0%"><stop offset="0%" stop-color="#a2b6df"></stop> <stop offset="100%" stop-color="#0c3483"></stop></linearGradient><linearGradient id="103" x1="0%" y1="0%" x2="100%" y2="0%"><stop offset="0%" stop-color="#7ac5d8"></stop> <stop offset="100%" stop-color="#eea2a2"></stop></linearGradient><linearGradient id="104" x1="0%" y1="0%" x2="100%" y2="0%"><stop offset="0%" stop-color="#00ecbc"></stop> <stop offset="100%" stop-color="#007adf"></stop></linearGradient><linearGradient id="105" x1="0%" y1="0%" x2="100%" y2="0%"><stop offset="0%" stop-color="#b88746"></stop> <stop offset="100%" stop-color="#fdf5a6"></stop></linearGradient></defs><g fill="#000000" class="icon-text-wrapper icon-svg-group iconsvg" transform="translate(34.68499755859375,93.11224555969238)"><g class="iconsvg-imagesvg" transform="translate(0,0)"><g><rect fill="#000000" fill-opacity="0" stroke-width="2" x="0" y="0" width="60" height="63.775510204081634" class="image-rect"></rect> <svg x="0" y="0" width="60" height="63.775510204081634" filtersec="colorsb1885952629" class="image-svg-svg primary" style="overflow: visible;"><svg xmlns="http://www.w3.org/2000/svg" viewBox="0 0 94.08000183105469 100"><path fill="#1d1c58" d="M0 75.7L23.22 100l23.82-24.93L70.86 100l23.22-24.3L83.5 64.63 72.93 75.69l.02.01-2.09 2.19-23.82-24.93-23.82 24.93-2.08-2.19v-.01L10.57 64.63 0 75.7z"></path><path d="M0 49.22l23.22 24.3L47 48.6l23.86 24.92 23.22-24.3L47 0zm21.13 0L47 22.11l26 27.11-2.14 2.18L47 26.48 23.22 51.4z" fill="#29aae1"></path></svg></svg> </g></g> <g transform="translate(65,11.248775482177734)"><g fill-rule="" class="tp-name iconsvg-namesvg" transform="translate(0,0)"><g transform="scale(1)"><g><path d="M14.13 0L13.09-4.31 7.37-4.31 6.34 0 0 0 6.34-19.64 14.44-19.64 20.5 0 14.13 0ZM10.34-15.4L10.2-15.4 8.17-8.13 12.27-8.13 10.34-15.4ZM22.02 0L22.02-20.67 27.91-20.91 27.91 0 22.02 0ZM41.72-16.19Q44.21-16.19 45.67-14.56 47.13-12.92 47.13-8.85L47.13-8.85Q47.13-5.82 46.55-3.91 45.96-2 45.2-1.38L45.2-1.38Q44.45-0.76 42.57-0.38 40.69 0 38.69 0L38.69 0Q38.11 0 36.73-0.07L36.73-0.07 36.73 4.82 30.84 5.06 30.84-15.85 35.66-15.85 36.25-13.4Q37.14-14.68 38.54-15.44 39.93-16.19 41.72-16.19L41.72-16.19ZM40.35-4.2Q40.73-4.48 40.9-5.77 41.07-7.06 41.07-8.23L41.07-8.23Q41.07-10.16 40.59-11.09 40.11-12.02 38.66-12.02L38.66-12.02Q37.62-12.02 36.73-11.82L36.73-11.82 36.73-4.17 37.69-4.07Q38.14-4.03 38.97-4.03L38.97-4.03Q40.14-4.03 40.35-4.2L40.35-4.2ZM64.78-14.85Q65.09-14.47 65.24-12.96 65.4-11.44 65.4-8.34L65.4-8.34 65.4 0 59.5 0 59.5-8.27Q59.5-8.41 59.5-9.63 59.5-10.85 59.33-11.13L59.33-11.13Q59.23-11.27 58.83-11.34 58.44-11.4 57.92-11.4L57.92-11.4 57.33-11.37Q56.37-11.34 55.33-10.92L55.33-10.92 55.33 0 49.44 0 49.44-20.67 55.33-20.91 55.33-16.88Q55.33-14.4 55.16-13.58L55.16-13.58 55.2-13.54Q57.54-16.19 60.81-16.19L60.81-16.19Q62.05-16.19 63.14-15.85 64.22-15.5 64.78-14.85L64.78-14.85ZM82.45 0L77.56 0 77.01-2.17Q75.42 0.41 72.6 0.41L72.6 0.41Q70.29 0.41 68.82-0.88 67.36-2.17 67.36-4.51L67.36-4.51Q67.36-5.96 68.2-7.05 69.05-8.13 70.53-8.58L70.53-8.58Q72.46-9.13 76.49-9.2L76.49-9.2Q76.49-11.47 76.28-11.61L76.28-11.61Q76.11-11.75 75.18-11.75L75.18-11.75Q74.59-11.75 73.56-11.68L73.56-11.68Q71.91-11.61 69.08-11.3L69.08-11.3Q68.81-13.16 68.67-15.3L68.67-15.3Q70.49-15.68 72.49-15.94 74.49-16.19 76.08-16.19L76.08-16.19Q78.83-16.19 80.21-15.28 81.59-14.37 82-12.89 82.42-11.4 82.38-9.13L82.38-9.13 82.35-4.07 82.45 0ZM74.59-3.45Q75.49-3.45 76.49-3.79L76.49-3.79 76.49-6.34 76.21-6.34Q73.66-6.34 73.39-6.06L73.39-6.06Q73.22-5.89 73.13-5.55 73.04-5.2 73.04-4.89L73.04-4.89Q73.04-4.07 73.42-3.76 73.8-3.45 74.59-3.45L74.59-3.45ZM100.37-4.69L100.75-0.65Q99.47-0.1 97.78 0.14 96.09 0.38 94.65 0.38L94.65 0.38Q89.96 0.38 87.31-2.07 84.66-4.51 84.66-9.58L84.66-9.58Q84.66-14.75 87.45-17.31 90.24-19.88 95.3-19.88L95.3-19.88Q97.71-19.88 100.33-19.23L100.33-19.23Q100.33-18.54 100.19-17.18 100.06-15.81 99.92-15.26L99.92-15.26 97.75-15.26Q95.37-15.26 94.01-15.18 92.65-15.09 92.37-14.85L92.37-14.85Q91.86-14.37 91.58-12.9 91.31-11.44 91.31-10.1L91.31-10.1Q91.31-7.75 91.89-6.49 92.48-5.24 93.37-4.82L93.37-4.82Q94.23-4.41 96.23-4.41L96.23-4.41Q97.82-4.41 100.37-4.69L100.37-4.69ZM110.36 0.45Q106.22 0.45 104.17-1.5 102.12-3.45 102.12-7.65L102.12-7.65Q102.12-9.96 102.55-11.7 102.99-13.44 103.61-14.13L103.61-14.13Q104.4-15.02 106.52-15.61 108.64-16.19 110.5-16.19L110.5-16.19Q114.94-16.19 116.84-14.3 118.73-12.4 118.73-8.23L118.73-8.23Q118.73-3.76 116.7-1.65 114.67 0.45 110.36 0.45L110.36 0.45ZM110.46-3.58Q111.81-3.58 112.22-4.53 112.63-5.48 112.63-7.89L112.63-7.89Q112.63-9.58 112.46-10.49 112.29-11.4 111.82-11.84 111.36-12.27 110.39-12.27L110.39-12.27Q109.01-12.27 108.81-12.02L108.81-12.02Q108.53-11.78 108.36-10.51 108.19-9.23 108.19-7.86L108.19-7.86Q108.19-5.51 108.65-4.55 109.12-3.58 110.46-3.58L110.46-3.58ZM131.86-16.19Q134.34-16.19 135.8-14.56 137.27-12.92 137.27-8.85L137.27-8.85Q137.27-5.82 136.68-3.91 136.1-2 135.34-1.38L135.34-1.38Q134.58-0.76 132.7-0.38 130.82 0 128.83 0L128.83 0Q128.24 0 126.86-0.07L126.86-0.07 126.86 4.82 120.97 5.06 120.97-15.85 125.79-15.85 126.38-13.4Q127.28-14.68 128.67-15.44 130.07-16.19 131.86-16.19L131.86-16.19ZM130.48-4.2Q130.86-4.48 131.03-5.77 131.2-7.06 131.2-8.23L131.2-8.23Q131.2-10.16 130.72-11.09 130.24-12.02 128.79-12.02L128.79-12.02Q127.76-12.02 126.86-11.82L126.86-11.82 126.86-4.17 127.83-4.07Q128.28-4.03 129.1-4.03L129.1-4.03Q130.27-4.03 130.48-4.2L130.48-4.2ZM142.64-17.81Q141.47-17.81 140.63-18.61 139.78-19.4 139.78-20.5L139.78-20.5Q139.78-21.6 140.63-22.4 141.47-23.19 142.64-23.19L142.64-23.19Q143.81-23.19 144.64-22.4 145.47-21.6 145.47-20.5L145.47-20.5Q145.47-19.4 144.64-18.61 143.81-17.81 142.64-17.81L142.64-17.81ZM139.68 0L139.68-15.85 145.57-15.85 145.57 0 139.68 0ZM148.6 0L148.6-20.67 154.5-20.91 154.5 0 148.6 0ZM165.07 0.45Q160.94 0.45 158.89-1.5 156.84-3.45 156.84-7.65L156.84-7.65Q156.84-9.96 157.27-11.7 157.7-13.44 158.32-14.13L158.32-14.13Q159.11-15.02 161.23-15.61 163.35-16.19 165.21-16.19L165.21-16.19Q169.66-16.19 171.55-14.3 173.45-12.4 173.45-8.23L173.45-8.23Q173.45-3.76 171.41-1.65 169.38 0.45 165.07 0.45L165.07 0.45ZM165.18-3.58Q166.52-3.58 166.93-4.53 167.35-5.48 167.35-7.89L167.35-7.89Q167.35-9.58 167.17-10.49 167-11.4 166.54-11.84 166.07-12.27 165.11-12.27L165.11-12.27Q163.73-12.27 163.52-12.02L163.52-12.02Q163.25-11.78 163.07-10.51 162.9-9.23 162.9-7.86L162.9-7.86Q162.9-5.51 163.37-4.55 163.83-3.58 165.18-3.58L165.18-3.58ZM182.99-12.47L182.99-6.51Q182.99-5.89 183.02-5.22 183.06-4.55 183.23-4.38L183.23-4.38Q183.47-4.13 184.92-4.13L184.92-4.13 186.09-4.17Q186.4-2.52 186.4-0.34L186.4-0.34Q185.75-0.1 184.49 0.1 183.23 0.31 182.09 0.31L182.09 0.31Q179.72 0.31 178.42-0.74 177.13-1.79 177.13-4L177.13-4 177.13-12.47 174.55-12.47 174.55-15.61 177.13-15.85 178.68-19.64 182.99-19.88 182.99-15.85 186.64-15.85 186.64-12.47 182.99-12.47ZM188.36-19.05L188.36-20.71 195.05-20.71 195.05-19.05 192.91-19.05 192.91-13.13 190.5-13.13 190.5-19.05 188.36-19.05ZM205.32-20.71L205.63-13.13 203.39-13.13 203.21-17.3Q203.21-18.12 203.11-19.19L203.11-19.19 203.08-19.19Q202.9-18.64 202.8-18.05 202.7-17.47 202.66-17.26L202.66-17.26 201.73-13.13 199.49-13.13 198.74-16.85 198.22-19.19 198.15-19.19 198.05-16.71 197.94-13.13 195.7-13.13 196.01-20.71 199.8-20.71 200.46-17.43 200.63-16.57 200.84-17.47 201.42-20.71 205.32-20.71Z" transform="translate(0, 23.190000534057617)"></path></g> </g></g> <g fill-rule="" class="tp-slogan iconsvg-slogansvg" fill="#000000" transform="translate(13.534996032714844,34.25)"> <g transform="scale(1, 1)"><g transform="scale(1)"><path d="M0.93-6.78L0.93 0L1.79 0L1.79-6.78ZM3.65-6.78L3.65 0L4.47 0L4.47-3.55C4.47-3.91 4.46-4.26 4.43-4.62C4.41-4.97 4.38-5.32 4.35-5.67L4.40-5.67L5.13-4.27L7.59 0L8.48 0L8.48-6.78L7.66-6.78L7.66-3.28C7.66-2.92 7.67-2.56 7.70-2.19C7.72-1.82 7.75-1.46 7.77-1.12L7.72-1.12L6.99-2.52L4.54-6.78ZM9.41-6.78L11.58 0L12.59 0L14.74-6.78L13.86-6.78L12.77-3.12C12.65-2.72 12.55-2.34 12.45-2.00C12.35-1.65 12.24-1.28 12.12-0.88L12.08-0.88C11.95-1.28 11.84-1.65 11.74-2.00C11.65-2.34 11.54-2.72 11.42-3.12L10.33-6.78ZM15.67-6.78L15.67 0L19.68 0L19.68-0.73L16.53-0.73L16.53-3.20L19.10-3.20L19.10-3.93L16.53-3.93L16.53-6.06L19.58-6.06L19.58-6.78ZM21.14-1.48L20.62-0.88C20.92-0.57 21.27-0.32 21.68-0.14C22.08 0.03 22.52 0.12 23.00 0.12C23.36 0.12 23.68 0.07 23.96-0.03C24.24-0.13 24.48-0.26 24.68-0.44C24.88-0.62 25.04-0.82 25.14-1.05C25.25-1.29 25.31-1.54 25.31-1.81C25.31-2.06 25.27-2.28 25.20-2.47C25.12-2.66 25.03-2.82 24.90-2.96C24.78-3.10 24.63-3.23 24.46-3.34C24.28-3.44 24.10-3.54 23.91-3.62L22.95-4.03C22.81-4.09 22.67-4.15 22.54-4.21C22.41-4.28 22.29-4.36 22.18-4.44C22.07-4.53 21.98-4.63 21.92-4.74C21.85-4.86 21.82-4.99 21.82-5.16C21.82-5.47 21.94-5.71 22.17-5.89C22.40-6.07 22.70-6.15 23.08-6.15C23.40-6.15 23.68-6.10 23.93-5.98C24.19-5.87 24.42-5.71 24.62-5.51L25.09-6.07C24.85-6.32 24.55-6.52 24.21-6.68C23.86-6.83 23.49-6.91 23.08-6.91C22.77-6.91 22.49-6.86 22.23-6.77C21.97-6.68 21.75-6.56 21.56-6.40C21.37-6.23 21.22-6.04 21.11-5.82C21.00-5.60 20.95-5.36 20.95-5.11C20.95-4.86 20.99-4.64 21.08-4.45C21.16-4.26 21.27-4.10 21.40-3.96C21.53-3.82 21.68-3.71 21.84-3.61C22.01-3.51 22.17-3.43 22.33-3.36L23.30-2.94C23.46-2.86 23.61-2.79 23.74-2.72C23.88-2.65 24.00-2.57 24.10-2.49C24.20-2.40 24.28-2.30 24.34-2.18C24.40-2.06 24.43-1.91 24.43-1.74C24.43-1.41 24.30-1.14 24.05-0.94C23.81-0.73 23.46-0.63 23.01-0.63C22.66-0.63 22.32-0.71 21.99-0.86C21.66-1.02 21.38-1.22 21.14-1.48ZM27.84-6.06L27.84 0L28.71 0L28.71-6.06L30.75-6.06L30.75-6.78L25.79-6.78L25.79-6.06ZM31.98-6.78L31.98 0L32.77 0L32.77-3.73C32.77-4.04 32.76-4.37 32.73-4.74C32.70-5.10 32.68-5.44 32.66-5.74L32.70-5.74L33.24-4.23L34.55-0.68L35.04-0.68L36.34-4.23L36.89-5.74L36.93-5.74C36.90-5.44 36.88-5.10 36.85-4.74C36.83-4.37 36.81-4.04 36.81-3.73L36.81 0L37.63 0L37.63-6.78L36.62-6.78L35.32-3.14L34.84-1.76L34.80-1.76L34.30-3.14L32.99-6.78ZM39.49-6.78L39.49 0L43.51 0L43.51-0.73L40.35-0.73L40.35-3.20L42.93-3.20L42.93-3.93L40.35-3.93L40.35-6.06L43.40-6.06L43.40-6.78ZM44.94-6.78L44.94 0L45.76 0L45.76-3.55C45.76-3.91 45.75-4.26 45.72-4.62C45.70-4.97 45.67-5.32 45.65-5.67L45.69-5.67L46.42-4.27L48.88 0L49.77 0L49.77-6.78L48.96-6.78L48.96-3.28C48.96-2.92 48.97-2.56 48.99-2.19C49.02-1.82 49.04-1.46 49.06-1.12L49.02-1.12L48.28-2.52L45.83-6.78ZM53.04-6.06L53.04 0L53.91 0L53.91-6.06L55.96-6.06L55.96-6.78L50.99-6.78L50.99-6.06ZM59.27-6.78L59.27 0L60.06 0L60.06-3.73C60.06-4.04 60.05-4.37 60.02-4.74C59.99-5.10 59.97-5.44 59.95-5.74L59.99-5.74L60.53-4.23L61.84-0.68L62.33-0.68L63.63-4.23L64.18-5.74L64.22-5.74C64.19-5.44 64.17-5.10 64.14-4.74C64.12-4.37 64.11-4.04 64.11-3.73L64.11 0L64.92 0L64.92-6.78L63.91-6.78L62.61-3.14L62.13-1.76L62.09-1.76L61.59-3.14L60.28-6.78ZM69.67-2.76L67.63-2.76L67.95-3.80C68.08-4.17 68.19-4.55 68.30-4.93C68.41-5.30 68.52-5.69 68.62-6.08L68.67-6.08C68.78-5.69 68.89-5.30 69.00-4.93C69.11-4.55 69.22-4.17 69.35-3.80ZM69.89-2.07L70.53 0L71.45 0L69.15-6.78L68.18-6.78L65.88 0L66.76 0L67.41-2.07ZM72.41-6.78L72.41 0L73.23 0L73.23-3.55C73.23-3.91 73.21-4.26 73.19-4.62C73.17-4.97 73.14-5.32 73.11-5.67L73.15-5.67L73.89-4.27L76.35 0L77.24 0L77.24-6.78L76.42-6.78L76.42-3.28C76.42-2.92 76.43-2.56 76.46-2.19C76.48-1.82 76.50-1.46 76.53-1.12L76.48-1.12L75.75-2.52L73.30-6.78ZM81.99-2.76L79.95-2.76L80.27-3.80C80.39-4.17 80.51-4.55 80.62-4.93C80.73-5.30 80.84-5.69 80.94-6.08L80.98-6.08C81.09-5.69 81.20-5.30 81.31-4.93C81.42-4.55 81.54-4.17 81.66-3.80ZM82.20-2.07L82.84 0L83.76 0L81.47-6.78L80.50-6.78L78.20 0L79.08 0L79.73-2.07ZM84.23-3.39C84.23-2.84 84.31-2.35 84.46-1.91C84.61-1.47 84.82-1.10 85.09-0.80C85.36-0.50 85.68-0.27 86.05-0.11C86.42 0.04 86.83 0.12 87.28 0.12C87.74 0.12 88.14 0.05 88.51-0.10C88.87-0.25 89.16-0.43 89.38-0.66L89.38-3.52L87.16-3.52L87.16-2.80L88.59-2.80L88.59-1.03C88.46-0.91 88.28-0.81 88.06-0.74C87.84-0.67 87.61-0.63 87.37-0.63C87.01-0.63 86.69-0.70 86.41-0.83C86.13-0.96 85.89-1.14 85.70-1.39C85.51-1.63 85.37-1.92 85.27-2.26C85.17-2.60 85.12-2.99 85.12-3.41C85.12-3.83 85.17-4.21 85.28-4.55C85.39-4.89 85.54-5.18 85.73-5.41C85.92-5.65 86.16-5.83 86.43-5.96C86.71-6.09 87.02-6.15 87.36-6.15C87.71-6.15 87.99-6.09 88.22-5.97C88.44-5.85 88.64-5.70 88.81-5.52L89.30-6.07C89.10-6.28 88.84-6.47 88.53-6.64C88.21-6.82 87.82-6.91 87.35-6.91C86.90-6.91 86.48-6.83 86.10-6.66C85.72-6.50 85.39-6.27 85.11-5.97C84.83-5.66 84.62-5.29 84.46-4.86C84.31-4.43 84.23-3.94 84.23-3.39ZM91.00-6.78L91.00 0L95.02 0L95.02-0.73L91.86-0.73L91.86-3.20L94.44-3.20L94.44-3.93L91.86-3.93L91.86-6.06L94.91-6.06L94.91-6.78ZM96.45-6.78L96.45 0L97.25 0L97.25-3.73C97.25-4.04 97.24-4.37 97.21-4.74C97.18-5.10 97.16-5.44 97.14-5.74L97.18-5.74L97.71-4.23L99.03-0.68L99.51-0.68L100.82-4.23L101.37-5.74L101.41-5.74C101.38-5.44 101.35-5.10 101.33-4.74C101.30-4.37 101.29-4.04 101.29-3.73L101.29 0L102.11 0L102.11-6.78L101.10-6.78L99.79-3.14L99.32-1.76L99.28-1.76L98.78-3.14L97.47-6.78ZM103.97-6.78L103.97 0L107.98 0L107.98-0.73L104.83-0.73L104.83-3.20L107.40-3.20L107.40-3.93L104.83-3.93L104.83-6.06L107.88-6.06L107.88-6.78ZM109.42-6.78L109.42 0L110.24 0L110.24-3.55C110.24-3.91 110.23-4.26 110.20-4.62C110.18-4.97 110.15-5.32 110.12-5.67L110.17-5.67L110.90-4.27L113.36 0L114.25 0L114.25-6.78L113.43-6.78L113.43-3.28C113.43-2.92 113.45-2.56 113.47-2.19C113.49-1.82 113.52-1.46 113.54-1.12L113.50-1.12L112.76-2.52L110.31-6.78ZM117.52-6.06L117.52 0L118.39 0L118.39-6.06L120.43-6.06L120.43-6.78L115.47-6.78L115.47-6.06ZM126.63-2.76L124.59-2.76L124.91-3.80C125.04-4.17 125.15-4.55 125.26-4.93C125.37-5.30 125.48-5.69 125.58-6.08L125.63-6.08C125.74-5.69 125.85-5.30 125.96-4.93C126.07-4.55 126.18-4.17 126.31-3.80ZM126.85-2.07L127.49 0L128.41 0L126.11-6.78L125.14-6.78L122.84 0L123.72 0L124.37-2.07ZM129.39-1.48L128.87-0.88C129.17-0.57 129.52-0.32 129.93-0.14C130.33 0.03 130.78 0.12 131.25 0.12C131.61 0.12 131.93 0.07 132.21-0.03C132.50-0.13 132.74-0.26 132.94-0.44C133.14-0.62 133.29-0.82 133.40-1.05C133.50-1.29 133.56-1.54 133.56-1.81C133.56-2.06 133.52-2.28 133.45-2.47C133.38-2.66 133.28-2.82 133.15-2.96C133.03-3.10 132.88-3.23 132.71-3.34C132.54-3.44 132.35-3.54 132.16-3.62L131.20-4.03C131.06-4.09 130.93-4.15 130.80-4.21C130.67-4.28 130.54-4.36 130.43-4.44C130.32-4.53 130.24-4.63 130.17-4.74C130.11-4.86 130.07-4.99 130.07-5.16C130.07-5.47 130.19-5.71 130.42-5.89C130.65-6.07 130.95-6.15 131.33-6.15C131.65-6.15 131.94-6.10 132.19-5.98C132.44-5.87 132.67-5.71 132.87-5.51L133.34-6.07C133.10-6.32 132.81-6.52 132.46-6.68C132.12-6.83 131.74-6.91 131.33-6.91C131.02-6.91 130.74-6.86 130.48-6.77C130.22-6.68 130.00-6.56 129.81-6.40C129.62-6.23 129.47-6.04 129.36-5.82C129.26-5.60 129.20-5.36 129.20-5.11C129.20-4.86 129.25-4.64 129.33-4.45C129.41-4.26 129.52-4.10 129.65-3.96C129.78-3.82 129.93-3.71 130.09-3.61C130.26-3.51 130.42-3.43 130.58-3.36L131.55-2.94C131.71-2.86 131.86-2.79 132.00-2.72C132.13-2.65 132.25-2.57 132.35-2.49C132.45-2.40 132.53-2.30 132.59-2.18C132.65-2.06 132.68-1.91 132.68-1.74C132.68-1.41 132.55-1.14 132.31-0.94C132.06-0.73 131.71-0.63 131.26-0.63C130.91-0.63 130.57-0.71 130.24-0.86C129.92-1.02 129.63-1.22 129.39-1.48ZM139.87-2.76L137.83-2.76L138.15-3.80C138.27-4.17 138.39-4.55 138.50-4.93C138.61-5.30 138.72-5.69 138.82-6.08L138.86-6.08C138.97-5.69 139.08-5.30 139.19-4.93C139.30-4.55 139.42-4.17 139.54-3.80ZM140.08-2.07L140.72 0L141.64 0L139.35-6.78L138.38-6.78L136.08 0L136.96 0L137.61-2.07ZM144.72-1.48L144.20-0.88C144.50-0.57 144.85-0.32 145.25-0.14C145.66 0.03 146.10 0.12 146.58 0.12C146.94 0.12 147.26 0.07 147.54-0.03C147.82-0.13 148.06-0.26 148.26-0.44C148.46-0.62 148.62-0.82 148.72-1.05C148.83-1.29 148.88-1.54 148.88-1.81C148.88-2.06 148.85-2.28 148.77-2.47C148.70-2.66 148.60-2.82 148.48-2.96C148.36-3.10 148.21-3.23 148.04-3.34C147.86-3.44 147.68-3.54 147.49-3.62L146.53-4.03C146.39-4.09 146.25-4.15 146.12-4.21C145.99-4.28 145.87-4.36 145.76-4.44C145.65-4.53 145.56-4.63 145.50-4.74C145.43-4.86 145.40-4.99 145.40-5.16C145.40-5.47 145.51-5.71 145.74-5.89C145.98-6.07 146.28-6.15 146.66-6.15C146.98-6.15 147.26-6.10 147.51-5.98C147.76-5.87 147.99-5.71 148.20-5.51L148.67-6.07C148.42-6.32 148.13-6.52 147.79-6.68C147.44-6.83 147.07-6.91 146.66-6.91C146.35-6.91 146.07-6.86 145.81-6.77C145.55-6.68 145.32-6.56 145.13-6.40C144.94-6.23 144.80-6.04 144.69-5.82C144.58-5.60 144.53-5.36 144.53-5.11C144.53-4.86 144.57-4.64 144.65-4.45C144.74-4.26 144.84-4.10 144.97-3.96C145.11-3.82 145.25-3.71 145.42-3.61C145.58-3.51 145.75-3.43 145.90-3.36L146.88-2.94C147.04-2.86 147.18-2.79 147.32-2.72C147.46-2.65 147.58-2.57 147.68-2.49C147.78-2.40 147.86-2.30 147.92-2.18C147.97-2.06 148.00-1.91 148.00-1.74C148.00-1.41 147.88-1.14 147.63-0.94C147.38-0.73 147.04-0.63 146.59-0.63C146.24-0.63 145.90-0.71 145.57-0.86C145.24-1.02 144.96-1.22 144.72-1.48ZM150.22-6.78L150.22 0L154.23 0L154.23-0.73L151.08-0.73L151.08-3.20L153.65-3.20L153.65-3.93L151.08-3.93L151.08-6.06L154.13-6.06L154.13-6.78ZM156.53-3.57L156.53-6.09L157.66-6.09C158.19-6.09 158.60-6.00 158.88-5.82C159.17-5.64 159.31-5.33 159.31-4.88C159.31-4.44 159.17-4.11 158.88-3.89C158.60-3.68 158.19-3.57 157.66-3.57ZM159.39 0L160.36 0L158.65-2.96C159.11-3.07 159.48-3.29 159.75-3.61C160.03-3.93 160.17-4.35 160.17-4.88C160.17-5.23 160.11-5.53 159.99-5.77C159.87-6.01 159.71-6.21 159.50-6.36C159.29-6.51 159.04-6.62 158.74-6.69C158.45-6.75 158.13-6.78 157.79-6.78L155.67-6.78L155.67 0L156.53 0L156.53-2.86L157.76-2.86ZM160.60-6.78L162.77 0L163.77 0L165.93-6.78L165.05-6.78L163.96-3.12C163.84-2.72 163.74-2.34 163.64-2.00C163.54-1.65 163.43-1.28 163.31-0.88L163.27-0.88C163.14-1.28 163.02-1.65 162.93-2.00C162.84-2.34 162.73-2.72 162.61-3.12L161.52-6.78ZM166.86-6.78L166.86 0L167.71 0L167.71-6.78ZM169.18-3.39C169.18-2.84 169.26-2.35 169.41-1.91C169.55-1.47 169.76-1.10 170.03-0.80C170.29-0.50 170.60-0.27 170.97-0.11C171.33 0.04 171.72 0.12 172.15 0.12C172.59 0.12 172.97 0.04 173.31-0.13C173.65-0.31 173.95-0.55 174.22-0.86L173.73-1.39C173.51-1.14 173.28-0.96 173.04-0.83C172.79-0.70 172.50-0.63 172.17-0.63C171.85-0.63 171.56-0.70 171.30-0.83C171.04-0.96 170.82-1.14 170.64-1.39C170.46-1.63 170.32-1.92 170.22-2.26C170.12-2.60 170.07-2.99 170.07-3.41C170.07-3.83 170.12-4.21 170.23-4.55C170.33-4.89 170.48-5.18 170.66-5.41C170.85-5.65 171.07-5.83 171.33-5.96C171.60-6.09 171.89-6.15 172.21-6.15C172.50-6.15 172.76-6.10 172.97-5.98C173.19-5.87 173.39-5.72 173.57-5.52L174.05-6.07C173.85-6.29 173.60-6.49 173.29-6.65C172.98-6.82 172.62-6.91 172.20-6.91C171.77-6.91 171.37-6.83 171.00-6.66C170.63-6.50 170.31-6.27 170.04-5.97C169.77-5.66 169.56-5.29 169.41-4.86C169.26-4.43 169.18-3.94 169.18-3.39ZM175.48-6.78L175.48 0L179.49 0L179.49-0.73L176.34-0.73L176.34-3.20L178.91-3.20L178.91-3.93L176.34-3.93L176.34-6.06L179.39-6.06L179.39-6.78Z" transform="translate(-0.9307135470527405, 6.907962771458118)"></path></g></g></g></g></g><defs v-gra="od"></defs></g></svg>