<svg xmlns="http://www.w3.org/2000/svg" width="17" height="17" viewBox="0 0 17 17" fill="none">
  <g clip-path="url(#clip0_6429_136395)">
    <path d="M16.4688 12.75H14.3438V10.625H13.2812V12.75H11.1562V13.8125H13.2812V15.9375H14.3438V13.8125H16.4688V12.75Z" fill="#161616"/>
    <path d="M13.2812 2.65625H11.6875V2.125C11.6867 1.84346 11.5745 1.57368 11.3754 1.3746C11.1763 1.17552 10.9065 1.06331 10.625 1.0625H6.375C6.09346 1.06331 5.82368 1.17552 5.6246 1.3746C5.42552 1.57368 5.31331 1.84346 5.3125 2.125V2.65625H3.71875C3.43721 2.65706 3.16743 2.76927 2.96835 2.96835C2.76927 3.16743 2.65706 3.43721 2.65625 3.71875V14.875C2.65706 15.1565 2.76927 15.4263 2.96835 15.6254C3.16743 15.8245 3.43721 15.9367 3.71875 15.9375H9.03125V14.875H3.71875V3.71875H5.3125V5.3125H11.6875V3.71875H13.2812V8.5H14.3438V3.71875C14.3429 3.43721 14.2307 3.16743 14.0317 2.96835C13.8326 2.76927 13.5628 2.65706 13.2812 2.65625ZM10.625 4.25H6.375V2.125H10.625V4.25Z" fill="#161616"/>
  </g>
  <defs>
    <clipPath id="clip0_6429_136395">
      <rect width="17" height="17" fill="white"/>
    </clipPath>
  </defs>
</svg>