<svg xmlns="http://www.w3.org/2000/svg" width="15" height="15" viewBox="0 0 15 15" fill="none">
<g clip-path="url(#clip0_6703_144141)">
<path d="M8.31562 14.0625L7.5 13.5938L9.375 10.3125H12.1875C12.4361 10.3125 12.6746 10.2137 12.8504 10.0379C13.0262 9.8621 13.125 9.62364 13.125 9.375V3.75C13.125 3.50136 13.0262 3.2629 12.8504 3.08709C12.6746 2.91127 12.4361 2.8125 12.1875 2.8125H2.8125C2.56386 2.8125 2.3254 2.91127 2.14959 3.08709C1.97377 3.2629 1.875 3.50136 1.875 3.75V9.375C1.875 9.62364 1.97377 9.8621 2.14959 10.0379C2.3254 10.2137 2.56386 10.3125 2.8125 10.3125H7.03125V11.25H2.8125C2.31522 11.25 1.83831 11.0525 1.48667 10.7008C1.13504 10.3492 0.9375 9.87228 0.9375 9.375V3.75C0.9375 3.25272 1.13504 2.77581 1.48667 2.42417C1.83831 2.07254 2.31522 1.875 2.8125 1.875H12.1875C12.6848 1.875 13.1617 2.07254 13.5133 2.42417C13.865 2.77581 14.0625 3.25272 14.0625 3.75V9.375C14.0625 9.87228 13.865 10.3492 13.5133 10.7008C13.1617 11.0525 12.6848 11.25 12.1875 11.25H9.91875L8.31562 14.0625Z" fill="#525252"/>
<path d="M11.25 4.6875H3.75V5.625H11.25V4.6875Z" fill="#525252"/>
<path d="M8.4375 7.5H3.75V8.4375H8.4375V7.5Z" fill="#525252"/>
</g>
<defs>
<clipPath id="clip0_6703_144141">
<rect width="15" height="15" fill="white"/>
</clipPath>
</defs>
</svg>
