<svg width="20" height="20" viewBox="0 0 20 20" fill="none" xmlns="http://www.w3.org/2000/svg">
<g clip-path="url(#clip0_5260_457752)">
<path d="M9.64595 2.19945C9.82618 1.9703 10.1733 1.9703 10.3535 2.19945L11.7101 3.92491C11.8229 4.06832 12.0111 4.12946 12.1866 4.07972L14.2983 3.4812C14.5788 3.40171 14.8597 3.60577 14.8707 3.89706L14.954 6.0904C14.961 6.27269 15.0772 6.43277 15.2485 6.4957L17.3087 7.25273C17.5823 7.35327 17.6896 7.68344 17.5273 7.92561L16.3056 9.74902C16.204 9.9006 16.204 10.0984 16.3056 10.25L17.5273 12.0734C17.6896 12.3156 17.5823 12.6457 17.3087 12.7463L15.2485 13.5034C15.0772 13.5663 14.961 13.7263 14.954 13.9087L14.8707 16.102C14.8597 16.3933 14.5788 16.5973 14.2983 16.5178L12.1866 15.9193C12.0111 15.8695 11.8229 15.9307 11.7101 16.0741L10.3535 17.7996C10.1733 18.0287 9.82618 18.0287 9.64595 17.7996L8.28934 16.0741C8.17659 15.9307 7.9884 15.8695 7.81288 15.9193L5.70115 16.5178C5.4207 16.5973 5.13983 16.3933 5.12877 16.102L5.04543 13.9087C5.0385 13.7263 4.9222 13.5663 4.75096 13.5034L2.69073 12.7463C2.41712 12.6457 2.30984 12.3156 2.4721 12.0734L3.69388 10.25C3.79543 10.0984 3.79543 9.9006 3.69388 9.74902L2.4721 7.92561C2.30984 7.68344 2.41712 7.35327 2.69073 7.25273L4.75096 6.4957C4.9222 6.43277 5.0385 6.27269 5.04543 6.0904L5.12877 3.89706C5.13983 3.60577 5.4207 3.40171 5.70115 3.4812L7.81288 4.07972C7.9884 4.12946 8.17659 4.06832 8.28934 3.92491L9.64595 2.19945Z" stroke="#383C93" stroke-width="1.125"/>
<path d="M7.75 10L9.25 11.5L12.25 8.5" stroke="#383C93" stroke-width="1.125" stroke-linecap="round" stroke-linejoin="round"/>
</g>
<defs>
<clipPath id="clip0_5260_457752">
<rect width="18" height="18" fill="white" transform="translate(1 1)"/>
</clipPath>
</defs>
</svg>
