<svg width="32" height="32" viewBox="0 0 32 32" fill="none" xmlns="http://www.w3.org/2000/svg">
<g clip-path="url(#clip0_7561_125043)">
<path d="M28 8H30V4C29.9994 3.46974 29.7886 2.96135 29.4136 2.5864C29.0386 2.21145 28.5303 2.00056 28 2H24V4H28V8Z" fill="#F4F4F4"/>
<path d="M21 2H17V4H21V2Z" fill="#F4F4F4"/>
<path d="M30 11H28V15H30V11Z" fill="#F4F4F4"/>
<path d="M28 18V22H24V10C23.9994 9.46975 23.7885 8.9614 23.4135 8.58646C23.0386 8.21152 22.5302 8.00061 22 8H10V4H14V2H10C9.46975 2.00061 8.9614 2.21152 8.58646 2.58646C8.21152 2.9614 8.00061 3.46975 8 4V8H4C3.46975 8.00061 2.9614 8.21152 2.58646 8.58646C2.21152 8.9614 2.00061 9.46975 2 10V28C2.00061 28.5302 2.21152 29.0386 2.58646 29.4135C2.9614 29.7885 3.46975 29.9994 4 30H22C22.5302 29.9994 23.0386 29.7885 23.4135 29.4135C23.7885 29.0386 23.9994 28.5302 24 28V24H28C28.5302 23.9994 29.0386 23.7885 29.4135 23.4135C29.7885 23.0386 29.9994 22.5302 30 22V18H28ZM22 28H4V10H22V28Z" fill="#F4F4F4"/>
</g>
<defs>
<clipPath id="clip0_7561_125043">
<rect width="32" height="32" fill="white"/>
</clipPath>
</defs>
</svg>
