<svg width="67" height="18" viewBox="0 0 67 18" fill="none" xmlns="http://www.w3.org/2000/svg">
<g clip-path="url(#clip0_1131_2165)">
<g style="mix-blend-mode:multiply">
<path d="M67 0H0V18H67V0Z" fill="white" fill-opacity="0.01"/>
</g>
<path d="M2.47776 14H1.30176V4.22803H5.19376C6.05243 4.22803 6.71976 4.46603 7.19576 4.94203C7.68109 5.41803 7.92376 6.10403 7.92376 7.00003C7.92376 7.7187 7.75576 8.31136 7.41976 8.77803C7.09309 9.23536 6.60776 9.5387 5.96376 9.68803L8.20376 14H6.87376L4.75976 9.80003H2.47776V14ZM5.19376 8.79203C5.66043 8.79203 6.01976 8.6707 6.27176 8.42803C6.53309 8.18536 6.66376 7.84003 6.66376 7.39203V6.66403C6.66376 6.21603 6.53309 5.8707 6.27176 5.62803C6.01976 5.38536 5.66043 5.26403 5.19376 5.26403H2.47776V8.79203H5.19376ZM10.4169 14V4.22803H16.3809V5.26403H11.5929V8.54003H16.1009V9.57603H11.5929V12.964H16.3809V14H10.4169ZM18.739 14V4.22803H19.915V12.964H24.073V14H18.739Z" fill="#161616"/>
<path d="M59 1H43C38.5817 1 35 4.58172 35 9C35 13.4183 38.5817 17 43 17H59C63.4183 17 67 13.4183 67 9C67 4.58172 63.4183 1 59 1Z" fill="#393939"/>
<path d="M48 9C48 6.23858 45.7614 4 43 4C40.2386 4 38 6.23858 38 9C38 11.7614 40.2386 14 43 14C45.7614 14 48 11.7614 48 9Z" fill="white"/>
</g>
<defs>
<clipPath id="clip0_1131_2165">
<rect width="67" height="18" fill="white"/>
</clipPath>
</defs>
</svg>
