<svg width="32" height="32" viewBox="0 0 32 32" fill="none" xmlns="http://www.w3.org/2000/svg">
<g clip-path="url(#clip0_7561_124991)">
<path d="M30 24H26V20H24V24H20V26H24V30H26V26H30V24Z" fill="#F4F4F4"/>
<path d="M16 28H8V3.99998H16V9.99998C16.0015 10.5299 16.2127 11.0378 16.5875 11.4125C16.9622 11.7872 17.47 11.9984 18 12H24V16H26V9.99998C26.0036 9.86855 25.9786 9.7379 25.9268 9.61705C25.875 9.4962 25.7976 9.38803 25.7 9.29998L18.7 2.29998C18.612 2.20231 18.5038 2.1249 18.3829 2.07311C18.2621 2.02131 18.1314 1.99636 18 1.99998H8C7.47004 2.00151 6.96222 2.21271 6.58748 2.58745C6.21274 2.9622 6.00153 3.47002 6 3.99998V28C6.00153 28.5299 6.21274 29.0378 6.58748 29.4125C6.96222 29.7872 7.47004 29.9984 8 30H16V28ZM18 4.39998L23.6 9.99998H18V4.39998Z" fill="#F4F4F4"/>
</g>
<defs>
<clipPath id="clip0_7561_124991">
<rect width="32" height="32" fill="white"/>
</clipPath>
</defs>
</svg>
