<svg xmlns="http://www.w3.org/2000/svg" width="16" height="17" viewBox="0 0 16 17" fill="none">
<g clip-path="url(#clip0_6001_157446)">
<path d="M15 12.7939L14.293 12.0869L13 13.3799V9.29395H12V13.3799L10.707 12.0869L10 12.7939L12.5 15.2939L15 12.7939Z" fill="#F4F4F4"/>
<path d="M8.85706 15.1511H3.14284V1.43698H7.71422V4.86551C7.71509 5.16835 7.83578 5.45852 8.04991 5.67266C8.26405 5.8868 8.55423 6.00748 8.85706 6.00836H12.2856V7.72262H13.4284V4.86551C13.4305 4.79041 13.4162 4.71576 13.3866 4.6467C13.357 4.57765 13.3128 4.51583 13.257 4.46552L9.25705 0.465568C9.20675 0.409757 9.14494 0.365526 9.07588 0.335929C9.00682 0.306333 8.93216 0.292075 8.85706 0.294142H3.14284C2.84001 0.295016 2.54983 0.415703 2.3357 0.629839C2.12156 0.843974 2.00087 1.13415 2 1.43698V15.1511C2.00087 15.4539 2.12156 15.7441 2.3357 15.9582C2.54983 16.1724 2.84001 16.2931 3.14284 16.2939H8.85706V15.1511ZM8.85706 1.66555L12.057 4.86551H8.85706V1.66555Z" fill="#F4F4F4"/>
</g>
<defs>
<clipPath id="clip0_6001_157446">
<rect width="16" height="16" fill="white" transform="translate(0 0.293945)"/>
</clipPath>
</defs>
</svg>
