<svg width="32" height="32" viewBox="0 0 32 32" fill="none" xmlns="http://www.w3.org/2000/svg">
<g clip-path="url(#clip0_7561_125073)">
<path d="M23.0002 20C22.2517 20.0037 21.5135 20.1755 20.8403 20.5026C20.167 20.8297 19.5758 21.3038 19.1102 21.89L11.8002 17.32C12.0666 16.4601 12.0666 15.5398 11.8002 14.68L19.1102 10.11C19.8521 11.0287 20.8953 11.6551 22.0549 11.8784C23.2145 12.1016 24.4157 11.9072 25.4457 11.3296C26.4757 10.752 27.268 9.82845 27.6823 8.72261C28.0966 7.61676 28.1061 6.39998 27.7091 5.28779C27.3122 4.17561 26.5344 3.23982 25.5135 2.64619C24.4927 2.05256 23.2947 1.83941 22.1317 2.0445C20.9688 2.24958 19.9159 2.85967 19.1597 3.76668C18.4035 4.67369 17.9928 5.81908 18.0002 6.99996C18.0049 7.44714 18.0722 7.89145 18.2002 8.31996L10.8902 12.89C10.2448 12.0775 9.36272 11.486 8.36614 11.1974C7.36955 10.9087 6.30785 10.9372 5.3282 11.279C4.34855 11.6207 3.49947 12.2588 2.89867 13.1047C2.29787 13.9506 1.9751 14.9624 1.9751 16C1.9751 17.0375 2.29787 18.0494 2.89867 18.8953C3.49947 19.7412 4.34855 20.3792 5.3282 20.7209C6.30785 21.0627 7.36955 21.0912 8.36614 20.8026C9.36272 20.5139 10.2448 19.9224 10.8902 19.11L18.2002 23.68C18.0722 24.1085 18.0049 24.5528 18.0002 25C18.0002 25.9889 18.2934 26.9556 18.8428 27.7778C19.3922 28.6001 20.1731 29.2409 21.0868 29.6194C22.0004 29.9978 23.0057 30.0968 23.9756 29.9039C24.9455 29.711 25.8365 29.2348 26.5357 28.5355C27.235 27.8362 27.7112 26.9453 27.9041 25.9754C28.097 25.0055 27.998 24.0002 27.6196 23.0865C27.2411 22.1729 26.6003 21.392 25.778 20.8426C24.9558 20.2932 23.9891 20 23.0002 20ZM23.0002 3.99996C23.5935 3.99996 24.1735 4.17591 24.6669 4.50555C25.1602 4.8352 25.5448 5.30373 25.7718 5.85191C25.9989 6.40009 26.0583 7.00329 25.9425 7.58523C25.8268 8.16717 25.5411 8.70172 25.1215 9.12128C24.7019 9.54084 24.1674 9.82656 23.5855 9.94232C23.0035 10.0581 22.4003 9.99866 21.8521 9.7716C21.304 9.54454 20.8354 9.16002 20.5058 8.66667C20.1761 8.17332 20.0002 7.5933 20.0002 6.99996C20.0002 6.20431 20.3163 5.44125 20.8789 4.87864C21.4415 4.31603 22.2045 3.99996 23.0002 3.99996ZM7.00018 19C6.40684 19 5.82682 18.824 5.33347 18.4944C4.84013 18.1647 4.45561 17.6962 4.22855 17.148C4.00148 16.5998 3.94207 15.9966 4.05783 15.4147C4.17358 14.8327 4.45931 14.2982 4.87886 13.8786C5.29842 13.4591 5.83297 13.1734 6.41491 13.0576C6.99686 12.9418 7.60006 13.0013 8.14823 13.2283C8.69641 13.4554 9.16495 13.8399 9.49459 14.3332C9.82424 14.8266 10.0002 15.4066 10.0002 16C10.0002 16.7956 9.68411 17.5587 9.1215 18.1213C8.5589 18.6839 7.79583 19 7.00018 19ZM23.0002 28C22.4068 28 21.8268 27.824 21.3335 27.4944C20.8401 27.1647 20.4556 26.6962 20.2285 26.148C20.0015 25.5998 19.9421 24.9966 20.0578 24.4147C20.1736 23.8327 20.4593 23.2982 20.8789 22.8786C21.2984 22.4591 21.833 22.1734 22.4149 22.0576C22.9969 21.9418 23.6001 22.0013 24.1482 22.2283C24.6964 22.4554 25.1649 22.8399 25.4946 23.3333C25.8242 23.8266 26.0002 24.4066 26.0002 25C26.0002 25.7956 25.6841 26.5587 25.1215 27.1213C24.5589 27.6839 23.7958 28 23.0002 28Z" fill="#F4F4F4"/>
</g>
<defs>
<clipPath id="clip0_7561_125073">
<rect width="32" height="32" fill="white"/>
</clipPath>
</defs>
</svg>
