<svg xmlns="http://www.w3.org/2000/svg" width="16" height="17" viewBox="0 0 16 17" fill="none">
<g clip-path="url(#clip0_6001_157439)">
<path d="M14.2477 4.48429H15.4667V2.0462C15.4664 1.72299 15.3378 1.41312 15.1093 1.18457C14.8807 0.956031 14.5709 0.827487 14.2477 0.827148H11.8096V2.0462H14.2477V4.48429Z" fill="#F4F4F4"/>
<path d="M9.98106 0.827148H7.54297V2.0462H9.98106V0.827148Z" fill="#F4F4F4"/>
<path d="M15.4666 6.3125H14.2476V8.7506H15.4666V6.3125Z" fill="#F4F4F4"/>
<path d="M15.3142 9.97001V12.2557H12.8761V5.39858C12.8757 5.09558 12.7472 4.80509 12.5186 4.59084C12.2901 4.37659 11.9802 4.25607 11.657 4.25572H4.34274V1.97001H6.78084V0.827148H4.34274C4.01955 0.827496 3.70969 0.948016 3.48116 1.16227C3.25262 1.37652 3.12407 1.66701 3.1237 1.97001V4.25572H0.6856C0.362403 4.25607 0.0525486 4.37659 -0.175987 4.59084C-0.404522 4.80509 -0.533076 5.09558 -0.533447 5.39858V15.6843C-0.533076 15.9873 -0.404522 16.2778 -0.175987 16.492C0.0525486 16.7063 0.362403 16.8268 0.6856 16.8271H11.657C11.9802 16.8268 12.2901 16.7063 12.5186 16.492C12.7472 16.2778 12.8757 15.9873 12.8761 15.6843V13.3986H15.3142C15.6374 13.3982 15.9472 13.2777 16.1758 13.0635C16.4043 12.8492 16.5328 12.5587 16.5332 12.2557V9.97001H15.3142ZM11.657 15.6843H0.6856V5.39858H11.657V15.6843Z" fill="#F4F4F4"/>
</g>
<defs>
<clipPath id="clip0_6001_157439">
<rect width="16" height="16" fill="white" transform="translate(0 0.293945)"/>
</clipPath>
</defs>
</svg>