<svg width="22" height="22" viewBox="0 0 22 22" fill="none" xmlns="http://www.w3.org/2000/svg">
<circle cx="11" cy="11" r="10.5" fill="#262626" stroke="#393939"/>
<g clip-path="url(#clip0_6961_369)">
<path d="M10.7639 5.80012C10.884 5.64736 11.1154 5.64736 11.2356 5.80012L12.14 6.95043C12.2152 7.04604 12.3406 7.0868 12.4576 7.05364L13.8654 6.65462C14.0524 6.60163 14.2397 6.73767 14.247 6.93186L14.3026 8.39409C14.3072 8.51562 14.3847 8.62234 14.4989 8.66429L15.8724 9.16898C16.0548 9.236 16.1263 9.45612 16.0181 9.61756L15.2036 10.8332C15.1359 10.9342 15.1359 11.0661 15.2036 11.1672L16.0181 12.3828C16.1263 12.5442 16.0548 12.7643 15.8724 12.8314L14.4989 13.3361C14.3847 13.378 14.3072 13.4847 14.3026 13.6063L14.247 15.0685C14.2397 15.2627 14.0524 15.3987 13.8654 15.3457L12.4576 14.9467C12.3406 14.9135 12.2152 14.9543 12.14 15.0499L11.2356 16.2002C11.1154 16.353 10.884 16.353 10.7639 16.2002L9.85948 15.0499C9.78431 14.9543 9.65885 14.9135 9.54184 14.9467L8.13402 15.3457C7.94705 15.3987 7.75981 15.2627 7.75243 15.0685L7.69687 13.6063C7.69225 13.4847 7.61472 13.378 7.50056 13.3361L6.12707 12.8314C5.94467 12.7643 5.87315 12.5442 5.98132 12.3828L6.79584 11.1672C6.86354 11.0661 6.86354 10.9342 6.79584 10.8332L5.98132 9.61756C5.87315 9.45612 5.94467 9.236 6.12707 9.16898L7.50056 8.66429C7.61472 8.62234 7.69225 8.51562 7.69687 8.39409L7.75243 6.93186C7.75981 6.73767 7.94705 6.60163 8.13402 6.65462L9.54184 7.05364C9.65885 7.0868 9.78431 7.04604 9.85948 6.95043L10.7639 5.80012Z" stroke="#F4F4F4"/>
<path d="M9.5 11L10.5 12L12.5 10" stroke="#F4F4F4" stroke-linecap="round" stroke-linejoin="round"/>
</g>
<rect x="5.0075" y="5.0075" width="11.985" height="11.985" stroke="#393939" stroke-width="0.015"/>
<defs>
<clipPath id="clip0_6961_369">
<rect x="5" y="5" width="12" height="12" fill="white"/>
</clipPath>
</defs>
</svg>
