<svg width="22" height="22" viewBox="0 0 32 32" fill="none" xmlns="http://www.w3.org/2000/svg">
<g clip-path="url(#clip0_7561_125121)">
<path d="M14.5 22H10V24H14.5V22Z" fill="#F4F4F4"/>
<path d="M20 16H10V18H20V16Z" fill="#F4F4F4"/>
<path d="M13.5 28L8 28.0001V4.0001H16V10.0001C16.0015 10.5301 16.2127 11.0379 16.5875 11.4126C16.9622 11.7874 17.47 11.9986 18 12.0001H24V15.0001H26V10.0001C26.0036 9.86867 25.9786 9.73802 25.9268 9.61717C25.875 9.49633 25.7976 9.38815 25.7 9.3001L18.7 2.3001C18.612 2.20243 18.5038 2.12502 18.3829 2.07323C18.2621 2.02143 18.1314 1.99648 18 2.0001H8C7.47004 2.00163 6.96222 2.21284 6.58748 2.58758C6.21274 2.96232 6.00153 3.47014 6 4.0001V28.0001C6.00153 28.5301 6.21274 29.0379 6.58748 29.4126C6.96222 29.7874 7.47004 29.9986 8 30.0001L13.5 30V28ZM18 4.4001L23.6 10.0001H18V4.4001Z" fill="#F4F4F4"/>
<path d="M28.707 19.293L25.707 16.293C25.6142 16.2001 25.504 16.1264 25.3827 16.0762C25.2614 16.0259 25.1313 16 25 16C24.8687 16 24.7386 16.0259 24.6173 16.0762C24.496 16.1264 24.3858 16.2001 24.293 16.293L15 25.5859V30H19.4141L28.707 20.707C28.7999 20.6142 28.8736 20.504 28.9239 20.3827C28.9742 20.2614 29 20.1314 29 20C29 19.8687 28.9742 19.7387 28.9239 19.6174C28.8736 19.4961 28.7999 19.3858 28.707 19.293ZM18.5859 28H17V26.4141L22 21.4141L23.5859 23L18.5859 28ZM25 21.5859L23.4141 20L25 18.4141L26.5859 20L25 21.5859Z" fill="#F4F4F4"/>
</g>
<defs>
<clipPath id="clip0_7561_125121">
<rect width="32" height="32" fill="white"/>
</clipPath>
</defs>
</svg>
