<svg width="32" height="32" viewBox="0 0 32 32" fill="none" xmlns="http://www.w3.org/2000/svg">
<g clip-path="url(#clip0_7561_125049)">
<path d="M29.2501 6.75997C28.6927 6.20061 28.0303 5.75679 27.301 5.45396C26.5717 5.15112 25.7898 4.99524 25.0001 4.99524C24.2104 4.99524 23.4285 5.15112 22.6992 5.45396C21.9699 5.75679 21.3075 6.20061 20.7501 6.75997L22.1701 8.17997C22.5424 7.80767 22.9844 7.51235 23.4708 7.31086C23.9572 7.10938 24.4786 7.00567 25.0051 7.00567C25.5316 7.00567 26.0529 7.10938 26.5394 7.31086C27.0258 7.51235 27.4678 7.80767 27.8401 8.17997C28.2124 8.55227 28.5077 8.99425 28.7092 9.48068C28.9107 9.96711 29.0144 10.4885 29.0144 11.015C29.0144 11.5415 28.9107 12.0628 28.7092 12.5493C28.5077 13.0357 28.2124 13.4777 27.8401 13.85L19.8401 21.85C19.0895 22.6019 18.071 23.0248 17.0086 23.0257C15.9462 23.0267 14.927 22.6055 14.1751 21.855C13.4232 21.1044 13.0003 20.0859 12.9993 19.0235C12.9984 17.9611 13.4195 16.9419 14.1701 16.19L15.5801 14.77L14.1701 13.35L12.7501 14.77C12.1907 15.3274 11.7469 15.9897 11.4441 16.7191C11.1412 17.4484 10.9854 18.2303 10.9854 19.02C10.9854 19.8097 11.1412 20.5916 11.4441 21.3209C11.7469 22.0502 12.1907 22.7125 12.7501 23.27C13.8816 24.387 15.4102 25.0092 17.0001 25C17.7928 25.0032 18.5783 24.8494 19.3112 24.5473C20.0441 24.2452 20.7099 23.8009 21.2701 23.24L29.2701 15.24C30.391 14.1123 31.0186 12.5858 31.0148 10.9958C31.0111 9.40582 30.3763 7.88232 29.2501 6.75997Z" fill="#F4F4F4"/>
<path d="M4.18997 24.8199C3.81656 24.4483 3.52026 24.0065 3.31807 23.52C3.11589 23.0335 3.01181 22.5118 3.01181 21.9849C3.01181 21.4581 3.11589 20.9364 3.31807 20.4499C3.52026 19.9634 3.81656 19.5216 4.18997 19.1499L12.19 11.1499C12.5616 10.7765 13.0034 10.4802 13.4899 10.278C13.9765 10.0759 14.4981 9.97178 15.025 9.97178C15.5518 9.97178 16.0735 10.0759 16.56 10.278C17.0465 10.4802 17.4883 10.7765 17.86 11.1499C18.231 11.5245 18.5231 11.9698 18.7189 12.4594C18.9147 12.9489 19.0103 13.4728 19 13.9999C19.003 14.5287 18.9012 15.0529 18.7004 15.5421C18.4995 16.0313 18.2037 16.4758 17.83 16.8499L15.71 18.9999L17.13 20.4199L19.25 18.2999C20.3785 17.1714 21.0124 15.6409 21.0124 14.0449C21.0124 12.449 20.3785 10.9184 19.25 9.78994C18.1215 8.66145 16.5909 8.02747 14.995 8.02747C13.399 8.02747 11.8685 8.66145 10.74 9.78994L2.73997 17.7899C2.17911 18.3475 1.73401 19.0105 1.43029 19.7408C1.12657 20.471 0.970215 21.2541 0.970215 22.0449C0.970215 22.8358 1.12657 23.6189 1.43029 24.3491C1.73401 25.0794 2.17911 25.7423 2.73997 26.2999C3.87879 27.4084 5.41087 28.0198 6.99997 27.9999C8.60307 28.0015 10.1417 27.3688 11.28 26.2399L9.85997 24.8199C9.4883 25.1934 9.04652 25.4897 8.56 25.6918C8.07349 25.894 7.55182 25.9981 7.02497 25.9981C6.49812 25.9981 5.97645 25.894 5.48994 25.6918C5.00342 25.4897 4.56164 25.1934 4.18997 24.8199Z" fill="#F4F4F4"/>
</g>
<defs>
<clipPath id="clip0_7561_125049">
<rect width="32" height="32" fill="white"/>
</clipPath>
</defs>
</svg>
