<svg width="22" height="22" viewBox="0 0 22 22" fill="none" xmlns="http://www.w3.org/2000/svg">
<circle cx="11" cy="11" r="10.5" fill="#262626" stroke="#393939"/>
<rect x="4.00875" y="4.00875" width="13.9825" height="13.9825" stroke="#393939" stroke-width="0.0175"/>
<path d="M13.9167 16.1038H8.08341C7.65796 16.1038 7.24994 15.9348 6.9491 15.634C6.64826 15.3331 6.47925 14.9251 6.47925 14.4997V7.49967C6.47925 7.07422 6.64826 6.6662 6.9491 6.36536C7.24994 6.06452 7.65796 5.89551 8.08341 5.89551H12.4584C12.5744 5.89561 12.6856 5.94177 12.7676 6.02384L15.3926 8.66634C15.4747 8.74831 15.5208 8.85951 15.5209 8.97551V14.4997C15.5209 14.9251 15.3519 15.3331 15.051 15.634C14.7502 15.9348 14.3422 16.1038 13.9167 16.1038ZM8.08341 6.77051C7.89003 6.77051 7.70456 6.84733 7.56782 6.98408C7.43107 7.12082 7.35425 7.30629 7.35425 7.49967V14.4997C7.35425 14.693 7.43107 14.8785 7.56782 15.0153C7.70456 15.152 7.89003 15.2288 8.08341 15.2288H13.9167C14.1101 15.2288 14.2956 15.152 14.4324 15.0153C14.5691 14.8785 14.6459 14.693 14.6459 14.4997V9.13884L12.2776 6.77051H8.08341Z" fill="#F4F4F4"/>
<path d="M13.7709 15.6663H12.8959V12.0205H9.10425V15.6663H8.22925V11.8747C8.22925 11.6813 8.30607 11.4958 8.44282 11.3591C8.57956 11.2223 8.76503 11.1455 8.95841 11.1455H13.0417C13.2351 11.1455 13.4206 11.2223 13.5574 11.3591C13.6941 11.4958 13.7709 11.6813 13.7709 11.8747V15.6663Z" fill="#F4F4F4"/>
<path d="M11.2743 9.10384H8.97594C8.87712 9.10308 8.77941 9.08286 8.68841 9.04434C8.5974 9.00581 8.51488 8.94974 8.44554 8.87932C8.37621 8.8089 8.32142 8.72551 8.28431 8.63393C8.2472 8.54233 8.2285 8.44433 8.22927 8.34551V6.33301H9.10427V8.22884H11.1459V6.33301H12.0209V8.34551C12.0217 8.44433 12.003 8.54233 11.9659 8.63393C11.9288 8.72551 11.874 8.8089 11.8047 8.87932C11.7353 8.94974 11.6528 9.00581 11.5618 9.04434C11.4708 9.08286 11.3731 9.10308 11.2743 9.10384Z" fill="#F4F4F4"/>
</svg>
