<svg xmlns="http://www.w3.org/2000/svg" width="9" height="10" viewBox="0 0 9 10" fill="none">
<path d="M0.757812 2.7002H1.52438H7.65692" stroke="#525252" stroke-width="0.814478" stroke-linecap="round" stroke-linejoin="round"/>
<path d="M6.88941 2.70013V8.0661C6.88941 8.2694 6.80864 8.46438 6.66488 8.60814C6.52113 8.7519 6.32615 8.83266 6.12284 8.83266H2.29C2.0867 8.83266 1.89172 8.7519 1.74796 8.60814C1.6042 8.46438 1.52344 8.2694 1.52344 8.0661V2.70013M2.67329 2.70013V1.93356C2.67329 1.73025 2.75405 1.53527 2.89781 1.39151C3.04157 1.24776 3.23655 1.16699 3.43986 1.16699H4.97299C5.1763 1.16699 5.37127 1.24776 5.51503 1.39151C5.65879 1.53527 5.73956 1.73025 5.73956 1.93356V2.70013" stroke="#525252" stroke-width="0.814478" stroke-linecap="round" stroke-linejoin="round"/>
<path d="M3.44043 4.61719V6.91689" stroke="#525252" stroke-width="0.814478" stroke-linecap="round" stroke-linejoin="round"/>
<path d="M4.97363 4.61719V6.91689" stroke="#525252" stroke-width="0.814478" stroke-linecap="round" stroke-linejoin="round"/>
</svg>