<svg width="25" height="24" viewBox="0 0 25 24" fill="none" xmlns="http://www.w3.org/2000/svg">
<g id="overflow-menu--vertical" clip-path="url(#clip0_7866_122798)">
<path id="Vector" d="M12.6293 7.5C13.4687 7.5 14.1492 6.82843 14.1492 6C14.1492 5.17157 13.4687 4.5 12.6293 4.5C11.7899 4.5 11.1094 5.17157 11.1094 6C11.1094 6.82843 11.7899 7.5 12.6293 7.5Z" fill="#161616"/>
<path id="Vector_2" d="M12.6293 13.5C13.4687 13.5 14.1492 12.8284 14.1492 12C14.1492 11.1716 13.4687 10.5 12.6293 10.5C11.7899 10.5 11.1094 11.1716 11.1094 12C11.1094 12.8284 11.7899 13.5 12.6293 13.5Z" fill="#161616"/>
<path id="Vector_3" d="M12.6293 19.5C13.4687 19.5 14.1492 18.8284 14.1492 18C14.1492 17.1716 13.4687 16.5 12.6293 16.5C11.7899 16.5 11.1094 17.1716 11.1094 18C11.1094 18.8284 11.7899 19.5 12.6293 19.5Z" fill="#161616"/>
</g>
<defs>
<clipPath id="clip0_7866_122798">
<rect width="24.3184" height="24" fill="white" transform="translate(0.46875)"/>
</clipPath>
</defs>
</svg>
