<svg width="10" height="17" viewBox="0 0 10 17" fill="none" xmlns="http://www.w3.org/2000/svg">
<path d="M1.8 2.6C2.24183 2.6 2.6 2.24183 2.6 1.8C2.6 1.35818 2.24183 1 1.8 1C1.35817 1 1 1.35818 1 1.8C1 2.24183 1.35817 2.6 1.8 2.6Z" stroke="white" stroke-width="1.6" stroke-linecap="round" stroke-linejoin="round"/>
<path d="M8.19844 2.6C8.64027 2.6 8.99844 2.24183 8.99844 1.8C8.99844 1.35818 8.64027 1 8.19844 1C7.75661 1 7.39844 1.35818 7.39844 1.8C7.39844 2.24183 7.75661 2.6 8.19844 2.6Z" stroke="white" stroke-width="1.6" stroke-linecap="round" stroke-linejoin="round"/>
<path d="M1.8 9.00039C2.24183 9.00039 2.6 8.64221 2.6 8.20039C2.6 7.75856 2.24183 7.40039 1.8 7.40039C1.35817 7.40039 1 7.75856 1 8.20039C1 8.64221 1.35817 9.00039 1.8 9.00039Z" stroke="white" stroke-width="1.6" stroke-linecap="round" stroke-linejoin="round"/>
<path d="M8.19844 9.00039C8.64027 9.00039 8.99844 8.64221 8.99844 8.20039C8.99844 7.75856 8.64027 7.40039 8.19844 7.40039C7.75661 7.40039 7.39844 7.75856 7.39844 8.20039C7.39844 8.64221 7.75661 9.00039 8.19844 9.00039Z" stroke="white" stroke-width="1.6" stroke-linecap="round" stroke-linejoin="round"/>
<path d="M1.8 15.4003C2.24183 15.4003 2.6 15.0421 2.6 14.6003C2.6 14.1585 2.24183 13.8003 1.8 13.8003C1.35817 13.8003 1 14.1585 1 14.6003C1 15.0421 1.35817 15.4003 1.8 15.4003Z" stroke="white" stroke-width="1.6" stroke-linecap="round" stroke-linejoin="round"/>
<path d="M8.19844 15.4003C8.64027 15.4003 8.99844 15.0421 8.99844 14.6003C8.99844 14.1585 8.64027 13.8003 8.19844 13.8003C7.75661 13.8003 7.39844 14.1585 7.39844 14.6003C7.39844 15.0421 7.75661 15.4003 8.19844 15.4003Z" stroke="white" stroke-width="1.6" stroke-linecap="round" stroke-linejoin="round"/>
</svg>
