<svg xmlns="http://www.w3.org/2000/svg" width="10" height="17" viewBox="0 0 10 17" fill="none">
<path d="M1.8 2.8998C2.24183 2.8998 2.6 2.54163 2.6 2.0998C2.6 1.65798 2.24183 1.2998 1.8 1.2998C1.35817 1.2998 1 1.65798 1 2.0998C1 2.54163 1.35817 2.8998 1.8 2.8998Z" stroke="#161616" stroke-width="1.6" stroke-linecap="round" stroke-linejoin="round"/>
<path d="M8.1999 2.8998C8.64173 2.8998 8.9999 2.54163 8.9999 2.0998C8.9999 1.65798 8.64173 1.2998 8.1999 1.2998C7.75807 1.2998 7.3999 1.65798 7.3999 2.0998C7.3999 2.54163 7.75807 2.8998 8.1999 2.8998Z" stroke="#161616" stroke-width="1.6" stroke-linecap="round" stroke-linejoin="round"/>
<path d="M1.8 9.3002C2.24183 9.3002 2.6 8.94202 2.6 8.5002C2.6 8.05837 2.24183 7.7002 1.8 7.7002C1.35817 7.7002 1 8.05837 1 8.5002C1 8.94202 1.35817 9.3002 1.8 9.3002Z" stroke="#161616" stroke-width="1.6" stroke-linecap="round" stroke-linejoin="round"/>
<path d="M8.1999 9.3002C8.64173 9.3002 8.9999 8.94202 8.9999 8.5002C8.9999 8.05837 8.64173 7.7002 8.1999 7.7002C7.75807 7.7002 7.3999 8.05837 7.3999 8.5002C7.3999 8.94202 7.75807 9.3002 8.1999 9.3002Z" stroke="#161616" stroke-width="1.6" stroke-linecap="round" stroke-linejoin="round"/>
<path d="M1.8 15.6996C2.24183 15.6996 2.6 15.3414 2.6 14.8996C2.6 14.4578 2.24183 14.0996 1.8 14.0996C1.35817 14.0996 1 14.4578 1 14.8996C1 15.3414 1.35817 15.6996 1.8 15.6996Z" stroke="#161616" stroke-width="1.6" stroke-linecap="round" stroke-linejoin="round"/>
<path d="M8.1999 15.6996C8.64173 15.6996 8.9999 15.3414 8.9999 14.8996C8.9999 14.4578 8.64173 14.0996 8.1999 14.0996C7.75807 14.0996 7.3999 14.4578 7.3999 14.8996C7.3999 15.3414 7.75807 15.6996 8.1999 15.6996Z" stroke="#161616" stroke-width="1.6" stroke-linecap="round" stroke-linejoin="round"/>
</svg>