<svg xmlns="http://www.w3.org/2000/svg" width="44" height="44" viewBox="0 0 44 44" fill="none">
<path d="M36.9601 26.3996C39.3901 26.3996 41.3601 24.4297 41.3601 21.9996C41.3601 19.5696 39.3901 17.5996 36.9601 17.5996C34.53 17.5996 32.5601 19.5696 32.5601 21.9996C32.5601 24.4297 34.53 26.3996 36.9601 26.3996Z" fill="#383C93" fill-opacity="0.3"/>
<path d="M7.04014 26.3996C9.47019 26.3996 11.4401 24.4297 11.4401 21.9996C11.4401 19.5696 9.47019 17.5996 7.04014 17.5996C4.61008 17.5996 2.64014 19.5696 2.64014 21.9996C2.64014 24.4297 4.61008 26.3996 7.04014 26.3996Z" fill="#383C93"/>
<path d="M22.0001 26.3996C24.4302 26.3996 26.4001 24.4297 26.4001 21.9996C26.4001 19.5696 24.4302 17.5996 22.0001 17.5996C19.57 17.5996 17.6001 19.5696 17.6001 21.9996C17.6001 24.4297 19.57 26.3996 22.0001 26.3996Z" fill="#383C93"/>
</svg>