<svg width="24" height="24" viewBox="0 0 24 24" fill="none" xmlns="http://www.w3.org/2000/svg">
<path d="M19.4997 6.3002H14.9997C14.9201 6.3002 14.8438 6.26859 14.7876 6.21233C14.7313 6.15607 14.6997 6.07976 14.6997 6.0002V1.5002C14.6997 1.42063 14.7313 1.34432 14.7876 1.28806C14.8438 1.2318 14.9201 1.2002 14.9997 1.2002C15.0793 1.2002 15.1556 1.2318 15.2118 1.28806C15.2681 1.34432 15.2997 1.42063 15.2997 1.5002V5.7002H19.4997C19.5793 5.7002 19.6556 5.7318 19.7118 5.78806C19.7681 5.84432 19.7997 5.92063 19.7997 6.0002C19.7997 6.07976 19.7681 6.15607 19.7118 6.21233C19.6556 6.26859 19.5793 6.3002 19.4997 6.3002Z" fill="#0F773D"/>
<path d="M19.4997 9.29C19.4201 9.29 19.3438 9.25839 19.2876 9.20213C19.2313 9.14587 19.1997 9.06956 19.1997 8.99V6.1244L14.8755 1.8002H5.99971C5.68145 1.8002 5.37622 1.92662 5.15118 2.15167C4.92614 2.37671 4.79971 2.68194 4.79971 3.0002V8.8904C4.79971 8.96996 4.7681 9.04627 4.71184 9.10253C4.65558 9.15879 4.57927 9.1904 4.49971 9.1904C4.42014 9.1904 4.34384 9.15879 4.28757 9.10253C4.23131 9.04627 4.19971 8.96996 4.19971 8.8904V3.0002C4.19971 2.52281 4.38935 2.06497 4.72691 1.7274C5.06448 1.38984 5.52232 1.2002 5.99971 1.2002H14.9997C15.0391 1.20013 15.0782 1.20783 15.1146 1.22286C15.1511 1.23789 15.1842 1.25995 15.2121 1.2878L19.7121 5.7878C19.7399 5.81571 19.762 5.84883 19.777 5.88528C19.7921 5.92172 19.7998 5.96077 19.7997 6.0002V8.99C19.7997 9.02939 19.7919 9.0684 19.7769 9.1048C19.7618 9.1412 19.7397 9.17427 19.7118 9.20213C19.684 9.22999 19.6509 9.25208 19.6145 9.26716C19.5781 9.28224 19.5391 9.29 19.4997 9.29Z" fill="#0F773D"/>
<path d="M17.9997 22.8002H5.99971C5.52232 22.8002 5.06448 22.6106 4.72691 22.273C4.38935 21.9354 4.19971 21.4776 4.19971 21.0002V16.5002C4.19971 16.4206 4.23131 16.3443 4.28757 16.2881C4.34384 16.2318 4.42014 16.2002 4.49971 16.2002C4.57927 16.2002 4.65558 16.2318 4.71184 16.2881C4.7681 16.3443 4.79971 16.4206 4.79971 16.5002V21.0002C4.79971 21.3185 4.92614 21.6237 5.15118 21.8487C5.37622 22.0738 5.68145 22.2002 5.99971 22.2002H17.9997C18.318 22.2002 18.6232 22.0738 18.8482 21.8487C19.0733 21.6237 19.1997 21.3185 19.1997 21.0002V16.5002C19.1997 16.4206 19.2313 16.3443 19.2876 16.2881C19.3438 16.2318 19.4201 16.2002 19.4997 16.2002C19.5793 16.2002 19.6556 16.2318 19.7118 16.2881C19.7681 16.3443 19.7997 16.4206 19.7997 16.5002V21.0002C19.7997 21.4776 19.6101 21.9354 19.2725 22.273C18.9349 22.6106 18.4771 22.8002 17.9997 22.8002Z" fill="#0F773D"/>
<path d="M16.4997 16.8002H7.49971C7.42014 16.8002 7.34384 16.7686 7.28757 16.7123C7.23131 16.6561 7.19971 16.5798 7.19971 16.5002C7.19971 16.4206 7.23131 16.3443 7.28757 16.2881C7.34384 16.2318 7.42014 16.2002 7.49971 16.2002H16.4997C16.5793 16.2002 16.6556 16.2318 16.7118 16.2881C16.7681 16.3443 16.7997 16.4206 16.7997 16.5002C16.7997 16.5798 16.7681 16.6561 16.7118 16.7123C16.6556 16.7686 16.5793 16.8002 16.4997 16.8002Z" fill="#0F773D"/>
<path d="M11.9997 19.8002H7.49971C7.42014 19.8002 7.34384 19.7686 7.28757 19.7123C7.23131 19.6561 7.19971 19.5798 7.19971 19.5002C7.19971 19.4206 7.23131 19.3443 7.28757 19.2881C7.34384 19.2318 7.42014 19.2002 7.49971 19.2002H11.9997C12.0793 19.2002 12.1556 19.2318 12.2118 19.2881C12.2681 19.3443 12.2997 19.4206 12.2997 19.5002C12.2997 19.5798 12.2681 19.6561 12.2118 19.7123C12.1556 19.7686 12.0793 19.8002 11.9997 19.8002Z" fill="#0F773D"/>
<path d="M19.4997 16.8006H4.49971C4.02232 16.8006 3.56448 16.611 3.22691 16.2734C2.88935 15.9358 2.69971 15.478 2.69971 15.0006V10.3908C2.69971 9.91343 2.88935 9.45559 3.22691 9.11803C3.56448 8.78046 4.02232 8.59082 4.49971 8.59082H4.51171L19.5117 8.69042C19.9867 8.69484 20.4408 8.88626 20.7756 9.22319C21.1104 9.56013 21.2989 10.0154 21.3003 10.4904V15.0006C21.3003 15.2371 21.2537 15.4712 21.1632 15.6896C21.0727 15.908 20.9401 16.1065 20.7729 16.2736C20.6057 16.4408 20.4072 16.5734 20.1887 16.6638C19.9703 16.7542 19.7361 16.8007 19.4997 16.8006ZM4.49971 9.19082C4.18145 9.19082 3.87622 9.31725 3.65118 9.54229C3.42614 9.76734 3.29971 10.0726 3.29971 10.3908V15.0006C3.29971 15.3189 3.42614 15.6241 3.65118 15.8491C3.87622 16.0742 4.18145 16.2006 4.49971 16.2006H19.4997C19.818 16.2006 20.1232 16.0742 20.3482 15.8491C20.5733 15.6241 20.6997 15.3189 20.6997 15.0006V10.4904C20.6988 10.1737 20.573 9.8701 20.3497 9.64546C20.1265 9.42083 19.8236 9.29326 19.5069 9.29042L4.50691 9.19082H4.49971Z" fill="#0F773D"/>
<path d="M9.14614 14.1611H7.06714V10.9619H9.12514V11.4377H7.64374V12.3047H8.83414V12.7685H7.64374V13.6637H9.14374L9.14614 14.1611Z" fill="#0F773D"/>
<path d="M11.4105 14.1609H10.7997L10.2981 13.2987L9.75086 14.1609H9.29126L10.0797 12.9423L9.39746 11.7939H10.0095L10.3983 12.4899L10.8411 11.7939H11.2887L10.6197 12.8205L11.4105 14.1609Z" fill="#0F773D"/>
<path d="M13.0437 13.2906L13.5033 13.3374C13.4437 13.6342 13.3289 13.8542 13.1589 13.9974C12.985 14.1407 12.765 14.216 12.5397 14.2092C12.2129 14.2092 11.9617 14.0892 11.7861 13.8492C11.6051 13.594 11.5126 13.2866 11.5227 12.9738C11.5227 12.6174 11.6187 12.3228 11.8107 12.09C11.9031 11.9763 12.0205 11.8856 12.1539 11.825C12.2873 11.7644 12.4329 11.7356 12.5793 11.7408C13.0949 11.7408 13.4019 12.0126 13.5003 12.5562L13.0407 12.6192C13.0007 12.3256 12.8561 12.1788 12.6069 12.1788C12.5247 12.1751 12.4432 12.1959 12.3729 12.2387C12.3026 12.2814 12.2466 12.3441 12.2121 12.4188C12.1255 12.598 12.0833 12.7954 12.0891 12.9942C12.0891 13.2342 12.1317 13.4186 12.2169 13.5474C12.2542 13.6089 12.3072 13.6594 12.3705 13.6935C12.4338 13.7277 12.505 13.7444 12.5769 13.7418C12.8117 13.7406 12.9673 13.5902 13.0437 13.2906Z" fill="#0F773D"/>
<path d="M15.4199 13.4055L15.8999 13.4709C15.8391 13.6826 15.7107 13.8687 15.5345 14.0007C15.337 14.1451 15.0967 14.2186 14.8523 14.2095C14.5243 14.2095 14.2603 14.0993 14.0603 13.8789C13.8603 13.6585 13.7603 13.3601 13.7603 12.9837C13.7603 12.6261 13.8603 12.3301 14.0603 12.0957C14.2603 11.8613 14.5337 11.7441 14.8805 11.7441C15.2181 11.7441 15.4781 11.8597 15.6605 12.0909C15.8429 12.3221 15.9351 12.6189 15.9371 12.9813V13.0413H14.3165C14.3125 13.1719 14.3279 13.3023 14.3621 13.4283C14.3949 13.5291 14.4577 13.6174 14.5421 13.6815C14.6394 13.7557 14.7594 13.7938 14.8817 13.7895C15.1473 13.7899 15.3267 13.6619 15.4199 13.4055ZM15.3869 12.6975C15.3922 12.5429 15.3371 12.3923 15.2333 12.2775C15.1857 12.2273 15.1286 12.1872 15.0654 12.1594C15.0021 12.1316 14.9338 12.1167 14.8647 12.1157C14.7956 12.1147 14.727 12.1276 14.6629 12.1535C14.5988 12.1794 14.5406 12.2179 14.4917 12.2667C14.3859 12.3848 14.3245 12.5361 14.3183 12.6945L15.3869 12.6975Z" fill="#0F773D"/>
<path d="M16.9626 14.1611H16.428V10.9619H16.9626V14.1611Z" fill="#0F773D"/>
</svg>
