<svg xmlns="http://www.w3.org/2000/svg" width="18" height="18" viewBox="0 0 18 18" fill="none">
<g clip-path="url(#clip0_9082_161601)">
<path d="M11.0682 12.6192L11.7993 13.3503L13.1364 12.0132V16.2385H14.1705V12.0132L15.5075 13.3503L16.2386 12.6192L13.6534 10.034L11.0682 12.6192Z" fill="#161616"/>
<path d="M10.0341 15.2046H4.86368V2.7955H9.00004V5.89777C9.00084 6.17179 9.11004 6.43435 9.3038 6.62811C9.49755 6.82187 9.76012 6.93107 10.0341 6.93186H13.1364V8.483H14.1705V5.89777C14.1724 5.82982 14.1594 5.76227 14.1327 5.69978C14.1059 5.6373 14.0659 5.58136 14.0154 5.53584L10.3961 1.91652C10.3506 1.86602 10.2946 1.826 10.2321 1.79922C10.1696 1.77244 10.1021 1.75954 10.0341 1.76141H4.86368C4.58967 1.7622 4.3271 1.8714 4.13334 2.06516C3.93958 2.25892 3.83038 2.52148 3.82959 2.7955V15.2046C3.83038 15.4786 3.93958 15.7412 4.13334 15.9349C4.3271 16.1287 4.58967 16.2379 4.86368 16.2387H10.0341V15.2046ZM10.0341 3.00232L12.9296 5.89777H10.0341V3.00232Z" fill="#161616"/>
</g>
<defs>
<clipPath id="clip0_9082_161601">
<rect width="16.5455" height="16.5455" fill="white" transform="translate(0.727295 0.727295)"/>
</clipPath>
</defs>
</svg>