<svg xmlns="http://www.w3.org/2000/svg" width="22" height="22" viewBox="0 0 22 22" fill="none">
<g clip-path="url(#clip0_11232_71017)">
<path d="M20.625 17.1875L19.6529 16.2154L17.875 17.9933V12.375H16.5V17.9933L14.7221 16.2154L13.75 17.1875L17.1875 20.625L20.625 17.1875Z" fill="black"/>
<path d="M12.375 19.25H5.5V2.74999H11V6.87499C11.0011 7.23934 11.1463 7.58847 11.4039 7.8461C11.6615 8.10374 12.0107 8.24894 12.375 8.24999H16.5V10.3125H17.875V6.87499C17.8775 6.78463 17.8603 6.69482 17.8247 6.61173C17.7891 6.52865 17.7359 6.45428 17.6688 6.39374L12.8563 1.58124C12.7957 1.51409 12.7214 1.46088 12.6383 1.42527C12.5552 1.38966 12.4654 1.37251 12.375 1.37499H5.5C5.13565 1.37604 4.78653 1.52125 4.52889 1.77888C4.27126 2.03652 4.12605 2.38564 4.125 2.74999V19.25C4.12605 19.6143 4.27126 19.9635 4.52889 20.2211C4.78653 20.4787 5.13565 20.6239 5.5 20.625H12.375V19.25ZM12.375 3.02499L16.225 6.87499H12.375V3.02499Z" fill="black"/>
</g>
<defs>
<clipPath id="clip0_11232_71017">
<rect width="22" height="22" fill="white"/>
</clipPath>
</defs>
</svg>