<svg width="137" height="34" viewBox="0 0 137 34" fill="none" xmlns="http://www.w3.org/2000/svg">
<rect x="0.75" y="0.75" width="32.5" height="32.5" rx="5.25" fill="white" stroke="black" stroke-width="0.5"/>
<path d="M9.27719 6.96782C10.0687 6.2084 10.7054 5.59822 11.4629 4.87091C13.2179 6.65045 14.9577 8.41299 16.8166 10.2964L22.1042 5.0976C22.9147 5.71912 23.6155 6.25941 24.4675 6.91304C23.5003 7.8387 22.6691 8.61701 21.8587 9.41422C20.6931 10.5609 19.5634 11.7454 18.3789 12.8713C17.5156 13.6912 16.5635 13.8971 15.7719 13.183C13.5522 11.1805 11.444 9.05718 9.27908 6.96782H9.27719Z" fill="#444799"/>
<path d="M24.5714 26.7714C23.6873 27.7273 23.1073 28.3564 22.3914 29.129C20.5571 27.3192 18.7624 25.551 16.8412 23.6563C14.9653 25.466 13.1744 27.1927 11.3061 28.9949C10.6562 28.4017 9.98182 27.7858 9.11661 26.9962C10.711 25.4641 12.279 23.9566 13.845 22.4472C14.2512 22.0562 14.629 21.6368 15.0522 21.2665C16.3254 20.1482 17.1529 19.9612 18.5489 21.2042C20.1131 22.5965 21.5035 24.1833 23.0053 25.6493C23.4398 26.0724 24.0009 26.369 24.5714 26.7695V26.7714Z" fill="#444799"/>
<path d="M6.59093 24.3421C5.98831 23.7093 5.43291 23.1274 4.61304 22.2679C6.58149 20.6074 8.48193 19.0035 10.5033 17.2995C8.3837 15.1138 6.64761 13.3229 4.8284 11.4452L6.70995 9.42383C7.20489 9.89611 7.69229 10.3325 8.14945 10.801C9.74008 12.4332 11.3553 14.0465 12.8911 15.7278C13.5674 16.4683 13.541 17.5772 12.8609 18.2989C10.9756 20.2975 9.03355 22.2433 7.10477 24.1986C7.01221 24.293 6.81385 24.2836 6.59282 24.3421H6.59093Z" fill="#444799"/>
<path d="M28.8181 22.4605L26.929 24.4629C24.8377 22.4076 22.9203 20.5506 21.0331 18.6615C19.996 17.6243 19.9903 16.3322 21.0066 15.2743C22.8391 13.3644 24.6979 11.4809 26.7023 9.4256C27.5014 10.1491 28.1815 10.7669 29.0486 11.5527C27.4164 13.1112 25.8956 14.598 24.3333 16.0431C23.623 16.7006 23.6325 17.2163 24.3296 17.8945C25.8163 19.3378 27.2369 20.8453 28.8162 22.4605H28.8181Z" fill="#444799"/>
<path d="M46.6 24V9.6H49.01V21.74H55.37V24H46.6ZM57.2641 11.56V9.35H59.6741V11.56H57.2641ZM57.2641 24V13.2H59.6741V24H57.2641ZM70.1395 24V18.8C70.1395 18.46 70.1162 18.0833 70.0695 17.67C70.0229 17.2567 69.9129 16.86 69.7395 16.48C69.5729 16.0933 69.3195 15.7767 68.9795 15.53C68.6462 15.2833 68.1929 15.16 67.6195 15.16C67.3129 15.16 67.0095 15.21 66.7095 15.31C66.4095 15.41 66.1362 15.5833 65.8895 15.83C65.6495 16.07 65.4562 16.4033 65.3095 16.83C65.1629 17.25 65.0895 17.79 65.0895 18.45L63.6595 17.84C63.6595 16.92 63.8362 16.0867 64.1895 15.34C64.5495 14.5933 65.0762 14 65.7695 13.56C66.4629 13.1133 67.3162 12.89 68.3295 12.89C69.1295 12.89 69.7895 13.0233 70.3095 13.29C70.8295 13.5567 71.2429 13.8967 71.5495 14.31C71.8562 14.7233 72.0829 15.1633 72.2295 15.63C72.3762 16.0967 72.4695 16.54 72.5095 16.96C72.5562 17.3733 72.5795 17.71 72.5795 17.97V24H70.1395ZM62.6495 24V13.2H64.7995V16.55H65.0895V24H62.6495ZM78.1091 24L74.1891 13.2H76.5991L79.3191 21.03L82.0291 13.2H84.4491L80.5291 24H78.1091ZM90.7631 24.3C89.6698 24.3 88.7098 24.0633 87.8831 23.59C87.0565 23.1167 86.4098 22.46 85.9431 21.62C85.4831 20.78 85.2531 19.8133 85.2531 18.72C85.2531 17.54 85.4798 16.5167 85.9331 15.65C86.3865 14.7767 87.0165 14.1 87.8231 13.62C88.6298 13.14 89.5631 12.9 90.6231 12.9C91.7431 12.9 92.6931 13.1633 93.4731 13.69C94.2598 14.21 94.8431 14.9467 95.2231 15.9C95.6031 16.8533 95.7465 17.9767 95.6531 19.27H93.2631V18.39C93.2565 17.2167 93.0498 16.36 92.6431 15.82C92.2365 15.28 91.5965 15.01 90.7231 15.01C89.7365 15.01 89.0031 15.3167 88.5231 15.93C88.0431 16.5367 87.8031 17.4267 87.8031 18.6C87.8031 19.6933 88.0431 20.54 88.5231 21.14C89.0031 21.74 89.7031 22.04 90.6231 22.04C91.2165 22.04 91.7265 21.91 92.1531 21.65C92.5865 21.3833 92.9198 21 93.1531 20.5L95.5331 21.22C95.1198 22.1933 94.4798 22.95 93.6131 23.49C92.7531 24.03 91.8031 24.3 90.7631 24.3ZM87.0431 19.27V17.45H94.4731V19.27H87.0431ZM102.054 24.3C100.721 24.3 99.6377 24 98.8044 23.4C97.971 22.8 97.4644 21.9567 97.2844 20.87L99.7444 20.49C99.871 21.0233 100.151 21.4433 100.584 21.75C101.018 22.0567 101.564 22.21 102.224 22.21C102.804 22.21 103.251 22.0967 103.564 21.87C103.884 21.6367 104.044 21.32 104.044 20.92C104.044 20.6733 103.984 20.4767 103.864 20.33C103.751 20.1767 103.498 20.03 103.104 19.89C102.711 19.75 102.108 19.5733 101.294 19.36C100.388 19.12 99.6677 18.8633 99.1344 18.59C98.601 18.31 98.2177 17.98 97.9844 17.6C97.751 17.22 97.6344 16.76 97.6344 16.22C97.6344 15.5467 97.811 14.96 98.1644 14.46C98.5177 13.96 99.011 13.5767 99.6444 13.31C100.278 13.0367 101.024 12.9 101.884 12.9C102.724 12.9 103.468 13.03 104.114 13.29C104.768 13.55 105.294 13.92 105.694 14.4C106.094 14.88 106.341 15.4433 106.434 16.09L103.974 16.53C103.914 16.07 103.704 15.7067 103.344 15.44C102.991 15.1733 102.518 15.0233 101.924 14.99C101.358 14.9567 100.901 15.0433 100.554 15.25C100.208 15.45 100.034 15.7333 100.034 16.1C100.034 16.3067 100.104 16.4833 100.244 16.63C100.384 16.7767 100.664 16.9233 101.084 17.07C101.511 17.2167 102.144 17.3967 102.984 17.61C103.844 17.83 104.531 18.0833 105.044 18.37C105.564 18.65 105.938 18.9867 106.164 19.38C106.398 19.7733 106.514 20.25 106.514 20.81C106.514 21.8967 106.118 22.75 105.324 23.37C104.538 23.99 103.448 24.3 102.054 24.3ZM115.035 24C114.321 24.1333 113.621 24.19 112.935 24.17C112.255 24.1567 111.645 24.0333 111.105 23.8C110.565 23.56 110.155 23.1833 109.875 22.67C109.628 22.2033 109.498 21.7267 109.485 21.24C109.471 20.7533 109.465 20.2033 109.465 19.59V10.2H111.865V19.45C111.865 19.8833 111.868 20.2633 111.875 20.59C111.888 20.9167 111.958 21.1833 112.085 21.39C112.325 21.79 112.708 22.0133 113.235 22.06C113.761 22.1067 114.361 22.08 115.035 21.98V24ZM107.505 15.09V13.2H115.035V15.09H107.505ZM116.957 23.98V21.88L123.117 16.39C123.597 15.9633 123.93 15.56 124.117 15.18C124.304 14.8 124.397 14.4333 124.397 14.08C124.397 13.6 124.294 13.1733 124.087 12.8C123.88 12.42 123.594 12.12 123.227 11.9C122.867 11.68 122.45 11.57 121.977 11.57C121.477 11.57 121.034 11.6867 120.647 11.92C120.267 12.1467 119.97 12.45 119.757 12.83C119.544 13.21 119.444 13.62 119.457 14.06H116.977C116.977 13.1 117.19 12.2633 117.617 11.55C118.05 10.8367 118.644 10.2833 119.397 9.89C120.157 9.49667 121.034 9.3 122.027 9.3C122.947 9.3 123.774 9.50667 124.507 9.92C125.24 10.3267 125.817 10.8933 126.237 11.62C126.657 12.34 126.867 13.17 126.867 14.11C126.867 14.7967 126.774 15.3733 126.587 15.84C126.4 16.3067 126.12 16.7367 125.747 17.13C125.38 17.5233 124.924 17.96 124.377 18.44L120.007 22.31L119.787 21.71H126.867V23.98H116.957ZM131.771 24V12.23L129.071 13.88V11.22L131.771 9.6H134.231V24H131.771Z" fill="#38761D"/>
</svg>
