<svg width="25" height="24" viewBox="0 0 25 24" fill="none" xmlns="http://www.w3.org/2000/svg">
<g id="move 1" clip-path="url(#clip0_7866_122803)">
<path id="Vector" d="M17.4587 7.60714L16.4893 8.56393L18.2632 10.3214H11.9581V4.09893L13.739 5.84964L14.7084 4.89286L11.2706 1.5L7.8327 4.89286L8.80218 5.84964L10.583 4.09893V10.3214H4.27794L6.05188 8.56393L5.0824 7.60714L1.64453 11L5.0824 14.3929L6.05188 13.4361L4.27794 11.6786H10.583V17.9011L8.80218 16.1504L7.8327 17.1071L11.2706 20.5L14.7084 17.1071L13.739 16.1504L11.9581 17.9011V11.6786H18.2632L16.4893 13.4361L17.4587 14.3929L20.8966 11L17.4587 7.60714Z" fill="#161616"/>
</g>
<defs>
<clipPath id="clip0_7866_122803">
<rect width="24.3184" height="24" fill="white" transform="translate(0.125)"/>
</clipPath>
</defs>
</svg>
