<svg xmlns="http://www.w3.org/2000/svg" width="19" height="19" viewBox="0 0 19 19" fill="none">
<g clip-path="url(#clip0_6703_144133)">
<path d="M13.0625 13.0625V16.625H3.5625V2.375H9.5V1.1875H3.5625C3.24756 1.1875 2.94551 1.31261 2.72281 1.53531C2.50011 1.75801 2.375 2.06006 2.375 2.375V16.625C2.375 16.9399 2.50011 17.242 2.72281 17.4647C2.94551 17.6874 3.24756 17.8125 3.5625 17.8125H13.0625C13.3774 17.8125 13.6795 17.6874 13.9022 17.4647C14.1249 17.242 14.25 16.9399 14.25 16.625V13.0625H13.0625Z" fill="black"/>
<path d="M17.5394 3.42039L15.58 1.46102C15.4024 1.28695 15.1637 1.18945 14.915 1.18945C14.6663 1.18945 14.4276 1.28695 14.25 1.46102L5.9375 9.77352V13.0629H9.22094L17.5334 4.75039C17.7075 4.57281 17.805 4.33406 17.805 4.08539C17.805 3.83673 17.7075 3.59798 17.5334 3.42039H17.5394ZM8.72812 11.8754H7.125V10.2723L12.73 4.66133L14.3391 6.27039L8.72812 11.8754ZM15.1762 5.4332L13.5672 3.82414L14.915 2.47633L16.5241 4.08539L15.1762 5.4332Z" fill="black"/>
</g>
<defs>
<clipPath id="clip0_6703_144133">
<rect width="19" height="19" fill="white"/>
</clipPath>
</defs>
</svg>