<svg xmlns="http://www.w3.org/2000/svg" width="24" height="24" viewBox="0 0 24 24" fill="none">
<path d="M20.4404 13.0403C20.4404 12.8528 20.4404 12.6653 20.4404 12.4703C20.4404 12.2753 20.4404 12.0878 20.4404 11.8928L21.8804 10.6328C22.1458 10.3988 22.32 10.0785 22.3722 9.72858C22.4243 9.37861 22.3511 9.02147 22.1654 8.72028L20.3954 5.72028C20.2639 5.49247 20.0747 5.30326 19.847 5.17162C19.6193 5.03998 19.3609 4.97055 19.0979 4.97028C18.9349 4.96903 18.7727 4.99436 18.6179 5.04528L16.7954 5.66028C16.4807 5.45118 16.1525 5.26327 15.8129 5.09778L15.4304 3.20778C15.3618 2.86248 15.1739 2.55231 14.8997 2.33155C14.6255 2.1108 14.2824 1.99353 13.9304 2.00028H10.4204C10.0684 1.99353 9.72526 2.1108 9.45103 2.33155C9.17681 2.55231 8.98896 2.86248 8.92038 3.20778L8.53788 5.09778C8.19583 5.26323 7.8651 5.45114 7.54788 5.66028L5.76288 5.01528C5.60635 4.97449 5.44425 4.9593 5.28288 4.97028C5.01983 4.97055 4.76148 5.03998 4.53375 5.17162C4.30601 5.30326 4.1169 5.49247 3.98537 5.72028L2.21538 8.72028C2.04032 9.02102 1.97526 9.37327 2.03136 9.7167C2.08746 10.0601 2.26122 10.3734 2.52287 10.6028L3.94037 11.9003C3.94037 12.0878 3.94037 12.2753 3.94037 12.4703C3.94037 12.6653 3.94037 12.8528 3.94037 13.0478L2.52287 14.3078C2.25383 14.5388 2.07532 14.8576 2.01902 15.2077C1.96273 15.5578 2.0323 15.9166 2.21538 16.2203L3.98537 19.2203C4.1169 19.4481 4.30601 19.6373 4.53375 19.7689C4.76148 19.9006 5.01983 19.97 5.28288 19.9703C5.44589 19.9715 5.60801 19.9462 5.76288 19.8953L7.58537 19.2803C7.90003 19.4894 8.22826 19.6773 8.56787 19.8428L8.95038 21.7328C9.01896 22.0781 9.20681 22.3882 9.48103 22.609C9.75526 22.8298 10.0984 22.947 10.4504 22.9403H13.9904C14.3424 22.947 14.6855 22.8298 14.9597 22.609C15.2339 22.3882 15.4218 22.0781 15.4904 21.7328L15.8729 19.8428C16.2149 19.6773 16.5456 19.4894 16.8629 19.2803L18.6779 19.8953C18.8327 19.9462 18.9949 19.9715 19.1579 19.9703C19.4209 19.97 19.6793 19.9006 19.907 19.7689C20.1347 19.6373 20.3239 19.4481 20.4554 19.2203L22.1654 16.2203C22.3404 15.9195 22.4055 15.5673 22.3494 15.2239C22.2933 14.8804 22.1195 14.5672 21.8579 14.3378L20.4404 13.0403ZM19.0979 18.4703L16.5254 17.6003C15.9232 18.1104 15.2349 18.5091 14.4929 18.7778L13.9604 21.4703H10.4204L9.88788 18.8078C9.15169 18.5315 8.46716 18.1334 7.86287 17.6303L5.28288 18.4703L3.51287 15.4703L5.55288 13.6703C5.4142 12.8939 5.4142 12.0991 5.55288 11.3228L3.51287 9.47028L5.28288 6.47028L7.85538 7.34028C8.45758 6.83019 9.14583 6.43147 9.88788 6.16278L10.4204 3.47028H13.9604L14.4929 6.13278C15.2291 6.40909 15.9136 6.80713 16.5179 7.31028L19.0979 6.47028L20.8679 9.47028L18.8279 11.2703C18.9666 12.0466 18.9666 12.8414 18.8279 13.6178L20.8679 15.4703L19.0979 18.4703Z" fill="#8D8D8D"/>
<path d="M12.5 16.9707C11.61 16.9707 10.74 16.7068 9.99994 16.2123C9.25991 15.7179 8.68314 15.015 8.34254 14.1928C8.00195 13.3705 7.91283 12.4657 8.08647 11.5928C8.2601 10.7199 8.68868 9.91806 9.31802 9.28872C9.94736 8.65939 10.7492 8.2308 11.6221 8.05717C12.495 7.88354 13.3998 7.97265 14.2221 8.31325C15.0443 8.65384 15.7471 9.23062 16.2416 9.97064C16.7361 10.7107 17 11.5807 17 12.4707C17.006 13.0633 16.8937 13.6512 16.6697 14.1999C16.4457 14.7486 16.1145 15.247 15.6954 15.6661C15.2763 16.0852 14.7779 16.4164 14.2292 16.6404C13.6805 16.8644 13.0926 16.9767 12.5 16.9707ZM12.5 9.4707C12.1035 9.46147 11.7093 9.53275 11.3411 9.68025C10.973 9.82774 10.6386 10.0484 10.3581 10.3288C10.0777 10.6093 9.85704 10.9437 9.70954 11.3118C9.56205 11.68 9.49077 12.0742 9.5 12.4707C9.49077 12.8672 9.56205 13.2614 9.70954 13.6296C9.85704 13.9977 10.0777 14.3322 10.3581 14.6126C10.6386 14.893 10.973 15.1137 11.3411 15.2612C11.7093 15.4087 12.1035 15.4799 12.5 15.4707C12.8965 15.4799 13.2907 15.4087 13.6589 15.2612C14.027 15.1137 14.3615 14.893 14.6419 14.6126C14.9223 14.3322 15.143 13.9977 15.2905 13.6296C15.438 13.2614 15.5092 12.8672 15.5 12.4707C15.5092 12.0742 15.438 11.68 15.2905 11.3118C15.143 10.9437 14.9223 10.6093 14.6419 10.3288C14.3615 10.0484 14.027 9.82774 13.6589 9.68025C13.2907 9.53275 12.8965 9.46147 12.5 9.4707Z" fill="#8D8D8D"/>
</svg>