<svg width="430" height="123" viewBox="0 0 430 123" fill="none" xmlns="http://www.w3.org/2000/svg">
<path d="M23.7743 10.6322C27.7877 6.78163 31.0157 3.68775 34.8567 0C43.7552 9.02302 52.5771 17.9598 62.0024 27.5097L88.8128 1.14943C92.922 4.30078 96.4757 7.04025 100.796 10.3544C95.8914 15.0479 91.6768 18.9943 87.5676 23.0365C81.6576 28.8507 75.9296 34.8564 69.9239 40.5653C65.5465 44.7224 60.7189 45.7664 56.7054 42.1457C45.4506 31.9924 34.7609 21.2261 23.7839 10.6322H23.7743Z" fill="#444799"/>
<path d="M101.322 111.045C96.8396 115.892 93.899 119.082 90.2687 122.999C80.9679 113.823 71.8683 104.857 62.1269 95.25C52.6154 104.426 43.5349 113.181 34.0617 122.319C30.7666 119.311 27.3471 116.189 22.9601 112.185C31.0444 104.417 38.9946 96.773 46.9353 89.1197C48.9947 87.137 50.9104 85.0105 53.056 83.1331C59.5119 77.4626 63.7073 76.5143 70.7859 82.817C78.717 89.8765 85.7668 97.9225 93.3818 105.355C95.5848 107.501 98.4297 109.005 101.322 111.036V111.045Z" fill="#444799"/>
<path d="M10.1538 98.7265C7.09827 95.5177 4.28216 92.5675 0.125061 88.2092C10.1059 79.7897 19.742 71.6574 29.9911 63.0176C19.2439 51.9352 10.4412 42.8547 1.21702 33.3336L10.7573 23.0845C13.2669 25.4791 15.7381 27.6918 18.0562 30.0673C26.1213 38.3431 34.311 46.5233 42.0984 55.0482C45.5275 58.803 45.3934 64.4256 41.9451 68.0846C32.3857 78.2188 22.5389 88.0847 12.7592 97.9985C12.2899 98.4775 11.2841 98.4296 10.1634 98.7265H10.1538Z" fill="#444799"/>
<path d="M122.855 89.1864L113.276 99.3397C102.673 88.9182 92.9506 79.5025 83.3816 69.9239C78.1229 64.6653 78.0942 58.1135 83.2475 52.7495C92.5387 43.0656 101.964 33.5157 112.127 23.0942C116.179 26.7628 119.627 29.895 124.023 33.8797C115.748 41.782 108.037 49.3204 100.115 56.648C96.5138 59.9813 96.5617 62.5963 100.096 66.035C107.635 73.353 114.838 80.9967 122.845 89.1864H122.855Z" fill="#444799"/>
<path d="M137.2 86V39.2H145.033V78.655H165.703V86H137.2ZM171.858 45.57V38.3875H179.691V45.57H171.858ZM171.858 86V50.9H179.691V86H171.858ZM213.703 86V69.1C213.703 67.995 213.628 66.7708 213.476 65.4275C213.324 64.0842 212.967 62.795 212.403 61.56C211.862 60.3033 211.038 59.2742 209.933 58.4725C208.85 57.6708 207.377 57.27 205.513 57.27C204.517 57.27 203.531 57.4325 202.556 57.7575C201.581 58.0825 200.693 58.6458 199.891 59.4475C199.111 60.2275 198.483 61.3108 198.006 62.6975C197.529 64.0625 197.291 65.8175 197.291 67.9625L192.643 65.98C192.643 62.99 193.218 60.2817 194.366 57.855C195.536 55.4283 197.248 53.5 199.501 52.07C201.754 50.6183 204.528 49.8925 207.821 49.8925C210.421 49.8925 212.566 50.3258 214.256 51.1925C215.946 52.0592 217.289 53.1642 218.286 54.5075C219.283 55.8508 220.019 57.2808 220.496 58.7975C220.973 60.3142 221.276 61.755 221.406 63.12C221.558 64.4633 221.633 65.5575 221.633 66.4025V86H213.703ZM189.361 86V50.9H196.348V61.7875H197.291V86H189.361ZM239.604 86L226.864 50.9H234.697L243.537 76.3475L252.344 50.9H260.209L247.469 86H239.604ZM280.73 86.975C277.177 86.975 274.057 86.2058 271.37 84.6675C268.683 83.1292 266.582 80.995 265.065 78.265C263.57 75.535 262.823 72.3933 262.823 68.84C262.823 65.005 263.559 61.6792 265.033 58.8625C266.506 56.0242 268.553 53.825 271.175 52.265C273.797 50.705 276.83 49.925 280.275 49.925C283.915 49.925 287.003 50.7808 289.538 52.4925C292.094 54.1825 293.99 56.5767 295.225 59.675C296.46 62.7733 296.926 66.4242 296.623 70.6275H288.855V67.7675C288.833 63.9542 288.162 61.17 286.84 59.415C285.518 57.66 283.438 56.7825 280.6 56.7825C277.393 56.7825 275.01 57.7792 273.45 59.7725C271.89 61.7442 271.11 64.6367 271.11 68.45C271.11 72.0033 271.89 74.755 273.45 76.705C275.01 78.655 277.285 79.63 280.275 79.63C282.203 79.63 283.861 79.2075 285.248 78.3625C286.656 77.4958 287.739 76.25 288.498 74.625L296.233 76.965C294.889 80.1283 292.809 82.5875 289.993 84.3425C287.198 86.0975 284.11 86.975 280.73 86.975ZM268.64 70.6275V64.7125H292.788V70.6275H268.64ZM317.427 86.975C313.093 86.975 309.573 86 306.864 84.05C304.156 82.1 302.509 79.3592 301.924 75.8275L309.919 74.5925C310.331 76.3258 311.241 77.6908 312.649 78.6875C314.058 79.6842 315.834 80.1825 317.979 80.1825C319.864 80.1825 321.316 79.8142 322.334 79.0775C323.374 78.3192 323.894 77.29 323.894 75.99C323.894 75.1883 323.699 74.5492 323.309 74.0725C322.941 73.5742 322.118 73.0975 320.839 72.6425C319.561 72.1875 317.6 71.6133 314.957 70.92C312.01 70.14 309.67 69.3058 307.937 68.4175C306.203 67.5075 304.958 66.435 304.199 65.2C303.441 63.965 303.062 62.47 303.062 60.715C303.062 58.5267 303.636 56.62 304.784 54.995C305.933 53.37 307.536 52.1242 309.594 51.2575C311.653 50.3692 314.079 49.925 316.874 49.925C319.604 49.925 322.02 50.3475 324.122 51.1925C326.245 52.0375 327.957 53.24 329.257 54.8C330.557 56.36 331.358 58.1908 331.662 60.2925L323.667 61.7225C323.472 60.2275 322.789 59.0467 321.619 58.18C320.471 57.3133 318.933 56.8258 317.004 56.7175C315.163 56.6092 313.678 56.8908 312.552 57.5625C311.425 58.2125 310.862 59.1333 310.862 60.325C310.862 60.9967 311.089 61.5708 311.544 62.0475C311.999 62.5242 312.909 63.0008 314.274 63.4775C315.661 63.9542 317.719 64.5392 320.449 65.2325C323.244 65.9475 325.476 66.7708 327.144 67.7025C328.834 68.6125 330.048 69.7067 330.784 70.985C331.543 72.2633 331.922 73.8125 331.922 75.6325C331.922 79.1642 330.633 81.9375 328.054 83.9525C325.498 85.9675 321.955 86.975 317.427 86.975ZM359.613 86C357.294 86.4333 355.019 86.6175 352.788 86.5525C350.578 86.5092 348.595 86.1083 346.84 85.35C345.085 84.57 343.753 83.3458 342.843 81.6775C342.041 80.1608 341.619 78.6117 341.575 77.03C341.532 75.4483 341.51 73.6608 341.51 71.6675V41.15H349.31V71.2125C349.31 72.6208 349.321 73.8558 349.343 74.9175C349.386 75.9792 349.614 76.8458 350.025 77.5175C350.805 78.8175 352.051 79.5433 353.763 79.695C355.474 79.8467 357.424 79.76 359.613 79.435V86ZM335.14 57.0425V50.9H359.613V57.0425H335.14ZM365.86 85.935V79.11L385.88 61.2675C387.44 59.8808 388.524 58.57 389.13 57.335C389.737 56.1 390.04 54.9083 390.04 53.76C390.04 52.2 389.705 50.8133 389.033 49.6C388.361 48.365 387.43 47.39 386.238 46.675C385.068 45.96 383.714 45.6025 382.175 45.6025C380.55 45.6025 379.11 45.9817 377.853 46.74C376.618 47.4767 375.654 48.4625 374.96 49.6975C374.267 50.9325 373.942 52.265 373.985 53.695H365.925C365.925 50.575 366.619 47.8558 368.005 45.5375C369.414 43.2192 371.342 41.4208 373.79 40.1425C376.26 38.8642 379.11 38.225 382.338 38.225C385.328 38.225 388.015 38.8967 390.398 40.24C392.781 41.5617 394.655 43.4033 396.02 45.765C397.385 48.105 398.068 50.8025 398.068 53.8575C398.068 56.0892 397.765 57.9633 397.158 59.48C396.551 60.9967 395.641 62.3942 394.428 63.6725C393.236 64.9508 391.752 66.37 389.975 67.93L375.773 80.5075L375.058 78.5575H398.068V85.935H365.86ZM414.006 86V47.7475L405.231 53.11V44.465L414.006 39.2H422.001V86H414.006Z" fill="#38761D"/>
</svg>
