<svg width="41" height="40" viewBox="0 0 41 40" fill="none" xmlns="http://www.w3.org/2000/svg">
<g id="chart--scatter 1" clip-path="url(#clip0_8916_147154)">
<path id="Vector" d="M38 37.5H5.5C4.83696 37.5 4.20107 37.2366 3.73223 36.7678C3.26339 36.2989 3 35.663 3 35V2.5H5.5V35H38V37.5Z" fill="black"/>
<path id="Vector_2" d="M13 30C14.3807 30 15.5 28.8807 15.5 27.5C15.5 26.1193 14.3807 25 13 25C11.6193 25 10.5 26.1193 10.5 27.5C10.5 28.8807 11.6193 30 13 30Z" fill="black"/>
<path id="Vector_3" d="M18 21.25C19.3807 21.25 20.5 20.1307 20.5 18.75C20.5 17.3693 19.3807 16.25 18 16.25C16.6193 16.25 15.5 17.3693 15.5 18.75C15.5 20.1307 16.6193 21.25 18 21.25Z" fill="black"/>
<path id="Vector_4" d="M28 21.25C29.3807 21.25 30.5 20.1307 30.5 18.75C30.5 17.3693 29.3807 16.25 28 16.25C26.6193 16.25 25.5 17.3693 25.5 18.75C25.5 20.1307 26.6193 21.25 28 21.25Z" fill="black"/>
<path id="Vector_5" d="M33 10C34.3807 10 35.5 8.88071 35.5 7.5C35.5 6.11929 34.3807 5 33 5C31.6193 5 30.5 6.11929 30.5 7.5C30.5 8.88071 31.6193 10 33 10Z" fill="black"/>
<path id="Vector_6" d="M18 12.5C19.3807 12.5 20.5 11.3807 20.5 10C20.5 8.61929 19.3807 7.5 18 7.5C16.6193 7.5 15.5 8.61929 15.5 10C15.5 11.3807 16.6193 12.5 18 12.5Z" fill="black"/>
</g>
<defs>
<clipPath id="clip0_8916_147154">
<rect width="40" height="40" fill="white" transform="translate(0.5)"/>
</clipPath>
</defs>
</svg>
