<svg width="21" height="21" viewBox="0 0 21 21" fill="none" xmlns="http://www.w3.org/2000/svg">
<g id="folder-search-svgrepo-com 1">
<g id="Group">
<path id="Vector" d="M18.2353 5.6934H10.8371C9.96214 5.64965 8.24276 3.84277 7.25401 3.84277H2.92276C2.39601 3.84264 1.96888 4.26951 1.96875 4.79626C1.96875 4.80365 1.96884 4.811 1.96901 4.8184V8.00777H19.0315V6.51152C19.0412 6.06947 18.6907 5.70324 18.2486 5.69357C18.2441 5.69349 18.2397 5.6934 18.2353 5.6934Z" stroke="white" stroke-width="0.8" stroke-linecap="round" stroke-linejoin="round"/>
<path id="Vector_2" d="M1.96879 8.00395V16.1939C1.96394 16.7207 2.38704 17.1516 2.91375 17.1564C2.91523 17.1564 2.91668 17.1564 2.91817 17.1564H18.0775C18.6043 17.1564 19.0313 16.7294 19.0313 16.2027C19.0313 16.1998 19.0313 16.1968 19.0313 16.1939V8.00391" stroke="white" stroke-width="0.8" stroke-linecap="round" stroke-linejoin="round"/>
</g>
<g id="Group_2">
<path id="Vector_3" d="M15.4287 13.9931C16.4852 13.9931 17.3417 13.1366 17.3417 12.08C17.3417 11.0235 16.4852 10.167 15.4287 10.167C14.3721 10.167 13.5156 11.0235 13.5156 12.08C13.5156 13.1366 14.3721 13.9931 15.4287 13.9931Z" stroke="white" stroke-width="0.8" stroke-linecap="round" stroke-linejoin="round"/>
<path id="Vector_4" d="M14.078 13.4326L12.5312 14.9794" stroke="white" stroke-width="0.8" stroke-linecap="round" stroke-linejoin="round"/>
</g>
</g>
</svg>
