<svg width="32" height="32" viewBox="0 0 32 32" fill="none" xmlns="http://www.w3.org/2000/svg">
<g clip-path="url(#clip0_7546_126041)">
<path d="M31.7071 19.2929L28.7071 16.293C28.3165 15.9024 27.6837 15.9024 27.293 16.293L18 25.5859V30H22.4141L31.7071 20.7071C32.0977 20.3165 32.0977 19.6837 31.7071 19.2929ZM21.586 28H20.0001V26.414L25.0001 21.414L26.586 23L21.586 28ZM28.0001 21.5859L26.4142 20L28.0001 18.414L29.586 20L28.0001 21.5859Z" fill="black"/>
<path d="M16 22C12.6357 22 10 19.3643 10 16C10 12.6357 12.6357 10 16 10C19.3643 10 22 12.6357 22 16C22 19.3643 19.3643 22 16 22ZM16 12C13.7197 12 12 13.7197 12 16C12 18.2803 13.7197 20 16 20C18.2803 20 20 18.2803 20 16C20 13.7197 18.2803 12 16 12Z" fill="black"/>
<path d="M27.5474 12.0005L29.2796 11.0005L26.9442 6.9561C26.579 6.3233 25.9108 5.9556 25.212 5.9556C24.9986 5.9556 24.7826 5.9898 24.5714 6.0616L22.1373 6.8848C21.7193 6.6036 21.2813 6.3496 20.8253 6.1265L20.3216 3.6079C20.1346 2.6728 19.3138 2 18.3604 2H13.6397C12.6863 2 11.8655 2.6729 11.6785 3.6079L11.1748 6.1265C10.7158 6.3511 10.2686 6.5957 9.84806 6.8799L7.42866 6.0615C7.21746 5.9897 7.00146 5.9555 6.78806 5.9555C6.08936 5.9555 5.42116 6.3232 5.05586 6.956L2.69526 11.0439C2.21866 11.8696 2.39106 12.9169 3.10716 13.5463L5.03806 15.2431C5.02096 15.4946 4.99996 15.7446 4.99996 15.9999C4.99996 16.2577 5.01026 16.5126 5.02776 16.7655L3.10706 18.4535C2.39096 19.0829 2.21866 20.1303 2.69516 20.9559L5.05576 25.0438C5.42096 25.6766 6.08916 26.0443 6.78796 26.0443C7.00136 26.0443 7.21766 26.0101 7.42856 25.9383L9.86266 25.1151C10.2807 25.3968 10.7187 25.6503 11.1747 25.8734L11.6784 28.392C11.8654 29.3271 12.6862 29.9999 13.6396 29.9999H16V27.9999H13.6396L12.9294 24.4491C11.9541 24.0931 11.0268 23.5429 10.2346 22.8778L6.78776 24.0438L4.42736 19.9559L7.15266 17.5609C6.96886 16.5179 6.96126 15.4779 7.14556 14.433L4.42726 12.0438L6.78836 7.9559L10.2152 9.1151C11.0184 8.4388 11.9447 7.91 12.9293 7.5506L13.6395 3.9998H18.3602L19.0704 7.5506C20.0457 7.9066 20.9727 8.4568 21.7652 9.1219L25.212 7.9559L27.5474 12.0005Z" fill="black"/>
</g>
<defs>
<clipPath id="clip0_7546_126041">
<rect width="32" height="32" fill="white"/>
</clipPath>
</defs>
</svg>
