<svg xmlns="http://www.w3.org/2000/svg" width="25" height="29" viewBox="0 0 25 29" fill="none">
<g clip-path="url(#clip0_6675_150615)">
<path d="M17.2887 24.9201H9.59903V23.2004H17.2887V9.4424H4.98521V18.0411H3.44727V9.4424C3.44769 8.98644 3.60986 8.5493 3.89819 8.22689C4.18652 7.90447 4.57745 7.72313 4.98521 7.72266H17.2887C17.6965 7.72313 18.0874 7.90447 18.3758 8.22689C18.6641 8.5493 18.8263 8.98644 18.8267 9.4424V23.2004C18.8263 23.6563 18.6641 24.0935 18.3758 24.4159C18.0874 24.7383 17.6965 24.9196 17.2887 24.9201Z" fill="#161616"/>
<path d="M21.902 19.7609H20.3641V18.0412H21.902V4.28322H9.59849V6.00297H8.06055V4.28322C8.06097 3.82726 8.22314 3.39012 8.51147 3.06771C8.7998 2.7453 9.19073 2.56395 9.59849 2.56348H21.902C22.3098 2.56395 22.7007 2.7453 22.989 3.06771C23.2774 3.39012 23.4395 3.82726 23.44 4.28322V18.0412C23.4395 18.4971 23.2774 18.9343 22.989 19.2567C22.7007 19.5791 22.3098 19.7605 21.902 19.7609Z" fill="#161616"/>
<path d="M8.06053 12.8818V14.6016H11.587L2.67773 24.5641L3.76506 25.7799L12.6744 15.8174V19.7608H14.2123V12.8818H8.06053Z" fill="#161616"/>
</g>
<defs>
<clipPath id="clip0_6675_150615">
<rect width="24.6071" height="27.5159" fill="white" transform="translate(0.371094 0.84375)"/>
</clipPath>
</defs>
</svg>