<svg width="67" height="18" viewBox="0 0 67 18" fill="none" xmlns="http://www.w3.org/2000/svg">
<path d="M7.42027 14.0001L6.44027 11.1161H2.49227L1.51227 14.0001H0.322266L3.73827 4.22806H5.23627L8.65227 14.0001H7.42027ZM4.49427 5.32006H4.42427L2.77227 10.0801H6.14627L4.49427 5.32006ZM10.431 4.22806H14.4491C15.2611 4.22806 15.8957 4.45673 16.3531 4.91406C16.8197 5.37139 17.0531 5.98273 17.0531 6.74806C17.0531 7.11206 17.0017 7.42006 16.899 7.67206C16.7964 7.92406 16.6657 8.13406 16.507 8.30206C16.3484 8.46073 16.1757 8.58206 15.989 8.66606C15.8024 8.74073 15.6297 8.79206 15.471 8.82006V8.90406C15.6484 8.91339 15.8444 8.96006 16.0591 9.04406C16.2831 9.12806 16.4931 9.26339 16.6891 9.45006C16.8851 9.62739 17.0484 9.86073 17.1791 10.1501C17.3191 10.4301 17.3891 10.7708 17.3891 11.1721C17.3891 11.5734 17.3237 11.9468 17.1931 12.2921C17.0717 12.6374 16.8991 12.9361 16.6751 13.1881C16.4511 13.4401 16.1851 13.6408 15.8771 13.7901C15.5691 13.9301 15.2331 14.0001 14.8691 14.0001H10.431V4.22806ZM11.607 12.9641H14.505C15.0091 12.9641 15.4057 12.8381 15.6951 12.5861C15.9844 12.3248 16.129 11.9468 16.129 11.4521V10.9761C16.129 10.4814 15.9844 10.1081 15.6951 9.85606C15.4057 9.59473 15.0091 9.46406 14.505 9.46406H11.607V12.9641ZM11.607 8.45606H14.309C14.7757 8.45606 15.1397 8.33939 15.4011 8.10606C15.6624 7.87273 15.7931 7.53673 15.7931 7.09806V6.62206C15.7931 6.18339 15.6624 5.84739 15.4011 5.61406C15.1397 5.38073 14.7757 5.26406 14.309 5.26406H11.607V8.45606ZM22.4815 14.1681C21.6882 14.1681 21.0115 14.0188 20.4515 13.7201C19.8915 13.4121 19.4155 12.9921 19.0235 12.4601L19.8915 11.7321C20.2369 12.1894 20.6195 12.5394 21.0395 12.7821C21.4595 13.0154 21.9542 13.1321 22.5235 13.1321C23.2235 13.1321 23.7555 12.9641 24.1195 12.6281C24.4929 12.2921 24.6795 11.8441 24.6795 11.2841C24.6795 10.8174 24.5395 10.4581 24.2595 10.2061C23.9795 9.95406 23.5175 9.75339 22.8735 9.60406L22.0755 9.42206C21.1795 9.21673 20.4935 8.90873 20.0175 8.49806C19.5509 8.07806 19.3175 7.49006 19.3175 6.73406C19.3175 6.30473 19.3969 5.92206 19.5555 5.58606C19.7142 5.25006 19.9335 4.97006 20.2135 4.74606C20.5029 4.52206 20.8435 4.35406 21.2355 4.24206C21.6369 4.12073 22.0755 4.06006 22.5515 4.06006C23.2889 4.06006 23.9189 4.19539 24.4415 4.46606C24.9735 4.73673 25.4215 5.13339 25.7855 5.65606L24.9035 6.30006C24.6329 5.92673 24.3062 5.63273 23.9235 5.41806C23.5409 5.20339 23.0649 5.09606 22.4955 5.09606C21.8702 5.09606 21.3755 5.23139 21.0115 5.50206C20.6569 5.76339 20.4795 6.16006 20.4795 6.69206C20.4795 7.15873 20.6289 7.51339 20.9275 7.75606C21.2355 7.98939 21.6975 8.17606 22.3135 8.31606L23.1115 8.49806C24.0729 8.71273 24.7682 9.03939 25.1975 9.47806C25.6269 9.91673 25.8415 10.5001 25.8415 11.2281C25.8415 11.6761 25.7622 12.0821 25.6035 12.4461C25.4542 12.8101 25.2349 13.1181 24.9455 13.3701C24.6562 13.6221 24.3015 13.8181 23.8815 13.9581C23.4709 14.0981 23.0042 14.1681 22.4815 14.1681Z" fill="#161616"/>
<path d="M59 1H43C38.5817 1 35 4.58172 35 9C35 13.4183 38.5817 17 43 17H59C63.4183 17 67 13.4183 67 9C67 4.58172 63.4183 1 59 1Z" fill="#24A148"/>
<path d="M64 9C64 6.23858 61.7614 4 59 4C56.2386 4 54 6.23858 54 9C54 11.7614 56.2386 14 59 14C61.7614 14 64 11.7614 64 9Z" fill="white"/>
<mask id="mask0_1131_2175" style="mask-type:luminance" maskUnits="userSpaceOnUse" x="56" y="6" width="6" height="6">
<path d="M62 6H56V12H62V6Z" fill="white"/>
</mask>
<g mask="url(#mask0_1131_2175)">
<g style="mix-blend-mode:multiply">
<path d="M62 6H56V12H62V6Z" fill="white" fill-opacity="0.01"/>
</g>
<path d="M58.4375 10.5L56.75 8.81249L57.0151 8.54736L58.4375 9.96955L60.9849 7.42236L61.25 7.68749L58.4375 10.5Z" fill="#161616" stroke="#24A148"/>
</g>
</svg>
