<svg width="67" height="18" viewBox="0 0 67 18" fill="none" xmlns="http://www.w3.org/2000/svg">
<path d="M2.47776 13H1.30176V3.22803H5.19376C6.05243 3.22803 6.71976 3.46603 7.19576 3.94203C7.68109 4.41803 7.92376 5.10403 7.92376 6.00003C7.92376 6.7187 7.75576 7.31136 7.41976 7.77803C7.09309 8.23536 6.60776 8.5387 5.96376 8.68803L8.20376 13H6.87376L4.75976 8.80003H2.47776V13ZM5.19376 7.79203C5.66043 7.79203 6.01976 7.6707 6.27176 7.42803C6.53309 7.18536 6.66376 6.84003 6.66376 6.39203V5.66403C6.66376 5.21603 6.53309 4.8707 6.27176 4.62803C6.01976 4.38536 5.66043 4.26403 5.19376 4.26403H2.47776V7.79203H5.19376ZM10.4169 13V3.22803H16.3809V4.26403H11.5929V7.54003H16.1009V8.57603H11.5929V11.964H16.3809V13H10.4169ZM18.739 13V3.22803H19.915V11.964H24.073V13H18.739Z" fill="#161616"/>
<path d="M59 0H43C38.5817 0 35 3.58172 35 8C35 12.4183 38.5817 16 43 16H59C63.4183 16 67 12.4183 67 8C67 3.58172 63.4183 0 59 0Z" fill="#8D8D8D"/>
<path d="M48 8C48 5.23858 45.7614 3 43 3C40.2386 3 38 5.23858 38 8C38 10.7614 40.2386 13 43 13C45.7614 13 48 10.7614 48 8Z" fill="white"/>
</svg>
