<svg xmlns="http://www.w3.org/2000/svg" width="22" height="22" viewBox="0 0 22 22" fill="none">
<g clip-path="url(#clip0_11232_51847)">
<path d="M9.625 8.25H8.25V16.5H9.625V8.25Z" fill="#161616"/>
<path d="M13.75 8.25H12.375V16.5H13.75V8.25Z" fill="#161616"/>
<path d="M2.75 4.125V5.5H4.125V19.25C4.125 19.6147 4.26987 19.9644 4.52773 20.2223C4.78559 20.4801 5.13533 20.625 5.5 20.625H16.5C16.8647 20.625 17.2144 20.4801 17.4723 20.2223C17.7301 19.9644 17.875 19.6147 17.875 19.25V5.5H19.25V4.125H2.75ZM5.5 19.25V5.5H16.5V19.25H5.5Z" fill="#161616"/>
<path d="M13.75 1.375H8.25V2.75H13.75V1.375Z" fill="#161616"/>
</g>
<defs>
<clipPath id="clip0_11232_51847">
<rect width="22" height="22" fill="white"/>
</clipPath>
</defs>
</svg>