<svg width="39" height="38" viewBox="0 0 39 38" fill="none" xmlns="http://www.w3.org/2000/svg">
<g id="chart--treemap 1" clip-path="url(#clip0_8916_147149)">
<path id="Vector" d="M35 2.5H5C4.33719 2.50076 3.70175 2.7644 3.23307 3.23307C2.7644 3.70175 2.50076 4.33719 2.5 5V35C2.50076 35.6628 2.7644 36.2983 3.23307 36.7669C3.70175 37.2356 4.33719 37.4992 5 37.5H35C35.6628 37.4992 36.2983 37.2356 36.7669 36.7669C37.2356 36.2983 37.4992 35.6628 37.5 35V5C37.4992 4.33719 37.2356 3.70175 36.7669 3.23307C36.2983 2.7644 35.6628 2.50076 35 2.5ZM35 17.5H28.75V5H35V17.5ZM20 5H26.25V17.5H20V5ZM17.5 5V25H5V5H17.5ZM5 27.5H17.5V35H5V27.5ZM20 35V20H35V35H20Z" fill="black"/>
</g>
<defs>
<clipPath id="clip0_8916_147149">
<rect width="40" height="40" fill="white"/>
</clipPath>
</defs>
</svg>
