<svg width="384" height="152" viewBox="0 0 384 152" fill="none" xmlns="http://www.w3.org/2000/svg">
<path fill-rule="evenodd" clip-rule="evenodd" d="M101.203 152L138.811 57.6333L176.418 152L226.703 15.4111C229.661 7.17778 230.844 2.59999 245 2.59999C251.2 2.59999 260.6 4.99999 260.6 17.4V129C260.6 141.4 251.2 143.6 245 143.6V146.2H296.4V143.6C288.6 143.6 281 141.8 281 129.2V17.2C281 4.39999 288.6 2.59999 296.4 2.59999V0H262.832H245H2.11279L0 2.53334H22.3956C34.016 2.53334 38.4529 10.3444 42.8897 20.2667L101.203 152ZM78.8072 60.8C102.259 116.111 104.795 120.756 108.386 120.756C110.499 120.756 111.344 119.278 115.992 107.878L137.332 54.4667L122.753 20.2667C118.528 10.3444 113.88 2.53334 102.259 2.53334H70.356C57.2567 2.53334 55.1439 5.06666 59.7921 16.0445L78.8072 60.8ZM137.543 11.4L146.839 33.5667L155.502 11.8222C158.248 4.85556 156.135 2.53334 146.628 2.53334C137.332 2.53334 135.008 5.27779 137.543 11.4ZM148.107 36.9444C179.587 118.433 180.855 120.756 183.391 120.756C185.081 120.756 185.715 119.489 189.94 107.878L223.745 15.8333C228.604 2.53334 223.745 2.53334 201.349 2.53334H177.897C162.263 2.53334 160.995 5.06667 148.107 36.9444Z" fill="url(#paint0_linear_2539_1799)"/>
<path d="M368.2 129V17.2C368.2 4.8 377.2 2.59999 383.2 2.59999V0H332.2V2.59999C340 2.59999 347.8 4.39999 347.8 17V55.8C347.8 61.4 345.8 65.2 342.8 67.4C337 71.6 327.2 73.8 319.6 74.8V76.2C327 77 336.8 79 342.8 83.2C345.8 85.4 347.8 89.6 347.8 95V129.2C347.8 141.8 340.4 143.6 332.6 143.6V146.2H383.6V143.6C377.6 143.6 368.2 141.4 368.2 129Z" fill="url(#paint1_linear_2539_1799)"/>
<defs>
<linearGradient id="paint0_linear_2539_1799" x1="50" y1="3.50436e-07" x2="428" y2="152" gradientUnits="userSpaceOnUse">
<stop stop-color="#E38481"/>
<stop offset="0.479167" stop-color="#EAB2E6"/>
<stop offset="1" stop-color="#FCEEED"/>
</linearGradient>
<linearGradient id="paint1_linear_2539_1799" x1="50" y1="3.50436e-07" x2="428" y2="152" gradientUnits="userSpaceOnUse">
<stop stop-color="#E38481"/>
<stop offset="0.479167" stop-color="#EAB2E6"/>
<stop offset="1" stop-color="#FCEEED"/>
</linearGradient>
</defs>
</svg>
