<svg width="2400" height="602" viewBox="0 0 2400 602" fill="none" xmlns="http://www.w3.org/2000/svg">
<g clip-path="url(#clip0_1213_7944)">
<g clip-path="url(#clip1_1213_7944)">
<path d="M23.5293 681.689L225.411 892.96L432.51 676.211L639.608 892.96L841.49 681.689L749.504 585.443L657.605 681.602L657.779 681.689L639.608 700.729L432.51 483.98L225.411 700.729L207.327 681.689V681.602L115.428 585.443L23.5293 681.689Z" fill="#1D1C58"/>
<path d="M23.5293 451.463L225.411 662.735L432.162 446.073L639.608 662.735L841.49 451.463L432.162 23.5293L23.5293 451.463ZM207.24 451.463L432.162 215.761L658.214 451.463L639.608 470.417L432.162 253.755L225.411 470.417L207.24 451.463Z" fill="#29AAE1"/>
</g>
</g>
<path d="M711.511 322.951L702.469 285.478H652.737L643.782 322.951H588.66L643.782 152.194H714.206L766.894 322.951H711.511ZM678.559 189.058H677.342L659.693 252.266H695.339L678.559 189.058ZM780.109 322.951V143.239L831.318 141.153V322.951H780.109ZM951.387 182.19C965.819 182.19 977.267 186.914 985.729 196.361C994.192 205.867 998.423 222.415 998.423 246.006C998.423 263.569 996.742 277.885 993.38 288.956C989.961 300.027 986.048 307.359 981.643 310.953C977.296 314.546 969.674 317.444 958.777 319.647C947.88 321.849 936.635 322.951 925.043 322.951C921.681 322.951 916.001 322.748 908.002 322.342V364.857L856.793 366.944V185.146H898.699L903.829 206.447C908.988 199.028 915.624 193.116 923.739 188.711C931.796 184.363 941.012 182.19 951.387 182.19ZM939.476 286.435C941.678 284.812 943.272 280.262 944.257 272.784C945.243 265.307 945.735 258.178 945.735 251.396C945.735 240.21 944.344 231.921 941.562 226.531C938.78 221.14 933.187 218.445 924.782 218.445C918.754 218.445 913.161 219.025 908.002 220.184V286.695L916.349 287.565C918.957 287.797 922.667 287.913 927.477 287.913C934.259 287.913 938.258 287.42 939.476 286.435ZM1151.88 193.84C1153.67 196.043 1155.01 201.52 1155.88 210.272C1156.8 219.083 1157.27 232.472 1157.27 250.44V322.951H1105.97V251.049C1105.97 250.237 1105.97 246.296 1105.97 239.224C1105.97 232.153 1105.48 227.806 1104.49 226.183C1103.91 225.372 1102.46 224.763 1100.15 224.357C1097.89 224.009 1095.25 223.836 1092.23 223.836L1087.1 224.096C1081.54 224.27 1075.74 225.574 1069.72 228.009V322.951H1018.51V143.239L1069.72 141.153V176.191C1069.72 190.565 1069.22 200.129 1068.24 204.882L1068.59 205.23C1082.15 189.87 1098.41 182.19 1117.36 182.19C1124.55 182.19 1131.3 183.175 1137.62 185.146C1143.88 187.175 1148.63 190.073 1151.88 193.84ZM1305.51 322.951H1262.99L1258.21 304.084C1248.99 319.038 1236.21 326.515 1219.87 326.515C1206.48 326.515 1195.52 322.777 1187 315.3C1178.54 307.823 1174.31 297.302 1174.31 283.739C1174.31 275.335 1176.74 267.974 1181.61 261.656C1186.54 255.396 1193.29 250.962 1201.87 248.353C1213.06 245.166 1230.33 243.369 1253.69 242.963C1253.69 229.806 1253.08 222.821 1251.86 222.01C1250.88 221.198 1247.69 220.793 1242.3 220.793C1238.88 220.793 1234.18 220.995 1228.21 221.401C1218.65 221.807 1205.67 222.908 1189.26 224.705C1187.7 213.924 1186.51 202.332 1185.7 189.928C1196.25 187.725 1207.32 185.87 1218.91 184.363C1230.5 182.914 1240.91 182.19 1250.12 182.19C1266.06 182.19 1278.03 184.827 1286.03 190.102C1294.03 195.376 1299.22 202.303 1301.59 210.881C1304.03 219.517 1305.13 230.414 1304.9 243.572L1304.64 287.565L1305.51 322.951ZM1237.17 292.955C1242.39 292.955 1247.89 291.97 1253.69 289.999V267.829H1251.25C1236.47 267.829 1228.3 268.64 1226.74 270.263C1225.75 271.248 1225 272.727 1224.48 274.697C1223.95 276.726 1223.69 278.639 1223.69 280.435C1223.69 285.188 1224.79 288.463 1227 290.26C1229.2 292.057 1232.59 292.955 1237.17 292.955ZM1461.31 282.174L1464.61 317.299C1457.19 320.487 1448.59 322.777 1438.79 324.168C1428.99 325.559 1419.92 326.254 1411.58 326.254C1384.39 326.254 1363.12 319.154 1347.76 304.953C1332.4 290.811 1324.72 269.046 1324.72 239.659C1324.72 209.693 1332.81 187.29 1348.98 172.452C1365.15 157.556 1387.9 150.108 1417.23 150.108C1431.2 150.108 1445.77 151.992 1460.96 155.759C1460.96 159.758 1460.55 165.7 1459.74 173.582C1458.99 181.523 1458.21 187.088 1457.4 190.275H1438.53C1424.73 190.275 1413.9 190.507 1406.01 190.971C1398.13 191.493 1393.38 192.449 1391.75 193.84C1388.8 196.622 1386.51 202.274 1384.89 210.794C1383.32 219.257 1382.54 227.371 1382.54 235.138C1382.54 248.759 1384.22 259.221 1387.58 266.525C1391 273.77 1395.29 278.61 1400.45 281.044C1405.43 283.421 1413.72 284.609 1425.31 284.609C1434.53 284.609 1446.53 283.797 1461.31 282.174ZM1548.16 326.863C1524.17 326.863 1506.23 321.212 1494.35 309.909C1482.46 298.607 1476.52 280.783 1476.52 256.439C1476.52 243.05 1477.77 231.313 1480.26 221.227C1482.81 211.142 1485.88 204.099 1489.48 200.1C1494.06 194.941 1502.49 190.652 1514.78 187.232C1527.07 183.871 1538.6 182.19 1549.38 182.19C1575.12 182.19 1593.49 187.667 1604.5 198.622C1615.46 209.635 1620.94 227.226 1620.94 251.396C1620.94 277.306 1615.05 296.375 1603.29 308.605C1591.52 320.777 1573.15 326.863 1548.16 326.863ZM1549.03 291.825C1556.86 291.825 1561.96 289.072 1564.34 283.565C1566.71 278.059 1567.9 268.321 1567.9 254.353C1567.9 244.557 1567.41 237.022 1566.42 231.747C1565.44 226.473 1563.58 222.56 1560.86 220.01C1558.19 217.518 1554.05 216.271 1548.43 216.271C1540.43 216.271 1535.85 216.996 1534.69 218.445C1533.07 219.836 1531.76 224.212 1530.78 231.573C1529.79 238.993 1529.3 246.673 1529.3 254.613C1529.3 268.234 1530.63 277.827 1533.3 283.392C1536.02 289.014 1541.27 291.825 1549.03 291.825ZM1735.09 182.19C1749.47 182.19 1760.89 186.914 1769.35 196.361C1777.87 205.867 1782.13 222.415 1782.13 246.006C1782.13 263.569 1780.42 277.885 1777 288.956C1773.64 300.027 1769.75 307.359 1765.35 310.953C1760.94 314.546 1753.29 317.444 1742.4 319.647C1731.5 321.849 1720.28 322.951 1708.75 322.951C1705.33 322.951 1699.62 322.748 1691.62 322.342V364.857L1640.41 366.944V185.146H1682.32L1687.45 206.447C1692.66 199.028 1699.3 193.116 1707.36 188.711C1715.47 184.363 1724.72 182.19 1735.09 182.19ZM1723.09 286.435C1725.3 284.812 1726.89 280.262 1727.88 272.784C1728.86 265.307 1729.35 258.178 1729.35 251.396C1729.35 240.21 1727.96 231.921 1725.18 226.531C1722.4 221.14 1716.8 218.445 1708.4 218.445C1702.43 218.445 1696.84 219.025 1691.62 220.184V286.695L1700.05 287.565C1702.66 287.797 1706.34 287.913 1711.1 287.913C1717.88 287.913 1721.88 287.42 1723.09 286.435ZM1828.82 168.105C1822.03 168.105 1816.21 165.786 1811.34 161.15C1806.41 156.571 1803.95 151.093 1803.95 144.717C1803.95 138.341 1806.41 132.835 1811.34 128.198C1816.21 123.619 1822.03 121.33 1828.82 121.33C1835.6 121.33 1841.39 123.619 1846.21 128.198C1851.02 132.835 1853.42 138.341 1853.42 144.717C1853.42 151.093 1851.02 156.571 1846.21 161.15C1841.39 165.786 1835.6 168.105 1828.82 168.105ZM1803.08 322.951V185.146H1854.29V322.951H1803.08ZM1880.63 322.951V143.239L1931.93 141.153V322.951H1880.63ZM2023.83 326.863C1999.89 326.863 1981.98 321.212 1970.1 309.909C1958.22 298.607 1952.28 280.783 1952.28 256.439C1952.28 243.05 1953.52 231.313 1956.01 221.227C1958.51 211.142 1961.55 204.099 1965.14 200.1C1969.72 194.941 1978.16 190.652 1990.44 187.232C2002.73 183.871 2014.27 182.19 2025.05 182.19C2050.84 182.19 2069.21 187.667 2080.17 198.622C2091.18 209.635 2096.69 227.226 2096.69 251.396C2096.69 277.306 2090.78 296.375 2078.95 308.605C2067.19 320.777 2048.81 326.863 2023.83 326.863ZM2024.79 291.825C2032.55 291.825 2037.62 289.072 2040 283.565C2042.44 278.059 2043.65 268.321 2043.65 254.353C2043.65 244.557 2043.13 237.022 2042.09 231.747C2041.1 226.473 2039.28 222.56 2036.61 220.01C2033.89 217.518 2029.74 216.271 2024.18 216.271C2016.18 216.271 2011.57 216.996 2010.35 218.445C2008.79 219.836 2007.48 224.212 2006.44 231.573C2005.46 238.993 2004.96 246.673 2004.96 254.613C2004.96 268.234 2006.33 277.827 2009.05 283.392C2011.72 289.014 2016.96 291.825 2024.79 291.825ZM2179.63 214.533V266.351C2179.63 269.944 2179.72 273.683 2179.89 277.566C2180.12 281.45 2180.73 283.884 2181.72 284.87C2183.11 286.319 2188.01 287.043 2196.41 287.043L2206.58 286.695C2208.38 296.259 2209.28 307.359 2209.28 319.995C2205.51 321.386 2199.98 322.661 2192.67 323.82C2185.37 325.037 2178.41 325.646 2171.81 325.646C2158.07 325.646 2147.43 322.603 2139.9 316.517C2132.42 310.431 2128.68 300.983 2128.68 288.173V214.533H2106.25V187.232L2128.68 185.146L2142.16 152.194L2179.63 150.108V185.146H2211.37V214.533H2179.63ZM2226.32 157.324V142.891H2284.49V157.324H2265.88V208.794H2244.93V157.324H2226.32ZM2373.78 142.891L2376.47 208.794H2357L2355.43 172.539C2355.43 167.786 2355.14 162.309 2354.56 156.107H2354.3C2353.26 159.295 2352.45 162.599 2351.87 166.018C2351.29 169.38 2350.88 171.67 2350.65 172.887L2342.56 208.794H2323.09L2316.57 176.452L2312.05 156.107H2311.44L2310.57 177.669L2309.61 208.794H2290.14L2292.83 142.891H2325.78L2331.52 171.409L2333 178.886L2334.83 171.061L2339.87 142.891H2373.78Z" fill="black"/>
<path d="M706.332 420.222V479.169H713.809V420.222H706.332ZM729.981 420.222V479.169H737.11V448.305C737.11 445.175 737.023 442.132 736.762 439.002C736.588 435.959 736.327 432.916 736.067 429.873H736.501L742.848 442.045L764.236 479.169H771.974V420.222H764.845V450.652C764.845 453.782 764.932 456.912 765.193 460.129C765.366 463.346 765.627 466.476 765.801 469.432H765.366L759.02 457.26L737.718 420.222H729.981ZM780.06 420.222L798.926 479.169H807.708L826.4 420.222H818.749L809.273 452.043C808.229 455.521 807.36 458.825 806.49 461.781C805.621 464.824 804.665 468.041 803.621 471.518H803.274C802.143 468.041 801.187 464.824 800.318 461.781C799.535 458.825 798.579 455.521 797.535 452.043L788.059 420.222H780.06ZM834.486 420.222V479.169H869.35V472.823H841.963V451.348H864.308V445.001H841.963V426.482H868.481V420.222H834.486ZM882.044 466.302L877.523 471.518C880.131 474.214 883.174 476.387 886.739 477.952C890.217 479.43 894.042 480.213 898.215 480.213C901.345 480.213 904.128 479.778 906.562 478.909C908.996 478.039 911.083 476.909 912.822 475.344C914.561 473.779 915.952 472.04 916.821 470.04C917.778 467.954 918.299 465.78 918.299 463.433C918.299 461.259 917.952 459.346 917.343 457.695C916.647 456.043 915.865 454.652 914.735 453.434C913.691 452.217 912.387 451.087 910.909 450.13C909.344 449.261 907.779 448.392 906.127 447.696L897.781 444.131C896.564 443.61 895.346 443.088 894.216 442.566C893.086 441.958 892.042 441.262 891.086 440.567C890.13 439.784 889.347 438.915 888.826 437.958C888.217 436.915 887.956 435.785 887.956 434.307C887.956 431.612 888.999 429.525 890.999 427.96C892.999 426.395 895.607 425.699 898.911 425.699C901.693 425.699 904.128 426.134 906.301 427.178C908.562 428.134 910.561 429.525 912.3 431.264L916.387 426.395C914.3 424.221 911.692 422.483 908.736 421.091C905.693 419.787 902.476 419.092 898.911 419.092C896.216 419.092 893.781 419.527 891.521 420.309C889.26 421.091 887.348 422.135 885.696 423.526C884.044 425.004 882.74 426.656 881.783 428.569C880.827 430.481 880.392 432.568 880.392 434.742C880.392 436.915 880.74 438.828 881.522 440.48C882.218 442.132 883.174 443.523 884.305 444.74C885.435 445.957 886.739 446.914 888.13 447.783C889.608 448.652 890.999 449.348 892.39 449.957L900.824 453.608C902.215 454.304 903.519 454.912 904.649 455.521C905.866 456.13 906.91 456.825 907.779 457.521C908.649 458.303 909.344 459.173 909.866 460.216C910.387 461.259 910.648 462.563 910.648 464.041C910.648 466.911 909.518 469.258 907.344 470.997C905.258 472.823 902.215 473.692 898.302 473.692C895.259 473.692 892.303 472.997 889.434 471.692C886.565 470.301 884.131 468.562 882.044 466.302ZM940.296 426.482V479.169H947.86V426.482H965.596V420.222H922.473V426.482H940.296ZM976.29 420.222V479.169H983.159V446.74C983.159 444.044 983.072 441.175 982.811 437.958C982.55 434.828 982.376 431.872 982.202 429.264H982.55L987.245 442.393L998.635 473.257H1002.89L1014.2 442.393L1018.98 429.264H1019.33C1019.07 431.872 1018.89 434.828 1018.63 437.958C1018.46 441.175 1018.28 444.044 1018.28 446.74V479.169H1025.41V420.222H1016.63L1005.33 451.869L1001.16 463.867H1000.81L996.461 451.869L985.072 420.222H976.29ZM1041.58 420.222V479.169H1076.54V472.823H1049.06V451.348H1071.49V445.001H1049.06V426.482H1075.58V420.222H1041.58ZM1088.97 420.222V479.169H1096.1V448.305C1096.1 445.175 1096.01 442.132 1095.75 439.002C1095.58 435.959 1095.32 432.916 1095.14 429.873H1095.49L1101.84 442.045L1123.22 479.169H1130.96V420.222H1123.92V450.652C1123.92 453.782 1124.01 456.912 1124.18 460.129C1124.44 463.346 1124.62 466.476 1124.79 469.432H1124.44L1118.01 457.26L1096.71 420.222H1088.97ZM1159.39 426.482V479.169H1166.96V426.482H1184.78V420.222H1141.57V426.482H1159.39ZM1213.56 420.222V479.169H1220.43V446.74C1220.43 444.044 1220.34 441.175 1220.08 437.958C1219.82 434.828 1219.64 431.872 1219.47 429.264H1219.82L1224.51 442.393L1235.9 473.257H1240.16L1251.47 442.393L1256.25 429.264H1256.59C1256.33 431.872 1256.16 434.828 1255.9 437.958C1255.73 441.175 1255.64 444.044 1255.64 446.74V479.169H1262.68V420.222H1253.9L1242.6 451.869L1238.42 463.867H1238.08L1233.73 451.869L1222.34 420.222H1213.56ZM1303.98 455.173H1286.24L1289.02 446.131C1290.15 442.914 1291.11 439.61 1292.07 436.307C1293.02 433.09 1293.98 429.699 1294.85 426.308H1295.28C1296.24 429.699 1297.2 433.09 1298.15 436.307C1299.11 439.61 1300.07 442.914 1301.2 446.131L1303.98 455.173ZM1305.89 461.172L1311.46 479.169H1319.45L1299.46 420.222H1291.02L1271.03 479.169H1278.68L1284.33 461.172H1305.89ZM1327.8 420.222V479.169H1334.93V448.305C1334.93 445.175 1334.76 442.132 1334.58 439.002C1334.41 435.959 1334.15 432.916 1333.89 429.873H1334.24L1340.67 442.045L1362.06 479.169H1369.79V420.222H1362.67V450.652C1362.67 453.782 1362.75 456.912 1363.01 460.129C1363.19 463.346 1363.36 466.476 1363.62 469.432H1363.19L1356.84 457.26L1335.54 420.222H1327.8ZM1411.09 455.173H1393.36L1396.14 446.131C1397.18 442.914 1398.23 439.61 1399.18 436.307C1400.14 433.09 1401.09 429.699 1401.96 426.308H1402.31C1403.27 429.699 1404.22 433.09 1405.18 436.307C1406.14 439.61 1407.18 442.914 1408.22 446.131L1411.09 455.173ZM1412.92 461.172L1418.48 479.169H1426.48L1406.57 420.222H1398.14L1378.14 479.169H1385.79L1391.44 461.172H1412.92ZM1430.57 449.696C1430.57 454.478 1431.26 458.738 1432.57 462.563C1433.87 466.389 1435.7 469.606 1438.05 472.214C1440.39 474.822 1443.17 476.822 1446.39 478.213C1449.61 479.517 1453.17 480.213 1457.09 480.213C1461.09 480.213 1464.56 479.604 1467.78 478.3C1470.91 476.996 1473.43 475.431 1475.34 473.431V448.566H1456.04V454.825H1468.48V470.214C1467.34 471.258 1465.78 472.127 1463.87 472.736C1461.95 473.344 1459.95 473.692 1457.87 473.692C1454.74 473.692 1451.96 473.083 1449.52 471.953C1447.09 470.823 1445 469.258 1443.35 467.084C1441.7 464.998 1440.48 462.476 1439.61 459.52C1438.74 456.564 1438.31 453.173 1438.31 449.522C1438.31 445.87 1438.74 442.566 1439.7 439.61C1440.65 436.654 1441.96 434.133 1443.61 432.133C1445.26 430.047 1447.35 428.482 1449.7 427.351C1452.13 426.221 1454.83 425.699 1457.78 425.699C1460.82 425.699 1463.26 426.221 1465.26 427.264C1467.17 428.308 1468.91 429.612 1470.39 431.177L1474.65 426.395C1472.91 424.569 1470.65 422.917 1467.95 421.439C1465.17 419.874 1461.78 419.092 1457.69 419.092C1453.78 419.092 1450.13 419.787 1446.83 421.265C1443.52 422.656 1440.65 424.656 1438.22 427.264C1435.78 429.96 1433.96 433.177 1432.57 436.915C1431.26 440.654 1430.57 444.914 1430.57 449.696ZM1489.43 420.222V479.169H1524.38V472.823H1496.91V451.348H1519.34V445.001H1496.91V426.482H1523.42V420.222H1489.43ZM1536.81 420.222V479.169H1543.77V446.74C1543.77 444.044 1543.68 441.175 1543.42 437.958C1543.16 434.828 1542.99 431.872 1542.81 429.264H1543.16L1547.77 442.393L1559.24 473.257H1563.42L1574.81 442.393L1579.59 429.264H1579.94C1579.68 431.872 1579.41 434.828 1579.24 437.958C1578.98 441.175 1578.89 444.044 1578.89 446.74V479.169H1586.02V420.222H1577.24L1565.85 451.869L1561.77 463.867H1561.42L1557.07 451.869L1545.68 420.222H1536.81ZM1602.19 420.222V479.169H1637.06V472.823H1609.67V451.348H1632.02V445.001H1609.67V426.482H1636.19V420.222H1602.19ZM1649.58 420.222V479.169H1656.71V448.305C1656.71 445.175 1656.62 442.132 1656.36 439.002C1656.19 435.959 1655.92 432.916 1655.66 429.873H1656.1L1662.45 442.045L1683.83 479.169H1691.57V420.222H1684.44V450.652C1684.44 453.782 1684.62 456.912 1684.79 460.129C1684.96 463.346 1685.22 466.476 1685.4 469.432H1685.05L1678.62 457.26L1657.32 420.222H1649.58ZM1720 426.482V479.169H1727.57V426.482H1745.3V420.222H1702.18V426.482H1720ZM1799.21 455.173H1781.47L1784.25 446.131C1785.38 442.914 1786.34 439.61 1787.3 436.307C1788.25 433.09 1789.21 429.699 1790.08 426.308H1790.51C1791.47 429.699 1792.43 433.09 1793.38 436.307C1794.34 439.61 1795.29 442.914 1796.42 446.131L1799.21 455.173ZM1801.12 461.172L1806.68 479.169H1814.68L1794.69 420.222H1786.25L1766.26 479.169H1773.91L1779.56 461.172H1801.12ZM1823.2 466.302L1818.68 471.518C1821.29 474.214 1824.33 476.387 1827.9 477.952C1831.38 479.43 1835.29 480.213 1839.37 480.213C1842.5 480.213 1845.29 479.778 1847.72 478.909C1850.24 478.039 1852.33 476.909 1854.07 475.344C1855.81 473.779 1857.11 472.04 1858.07 470.04C1858.94 467.954 1859.46 465.78 1859.46 463.433C1859.46 461.259 1859.11 459.346 1858.5 457.695C1857.89 456.043 1857.02 454.652 1855.89 453.434C1854.85 452.217 1853.55 451.087 1852.07 450.13C1850.59 449.261 1848.94 448.392 1847.29 447.696L1838.94 444.131C1837.72 443.61 1836.59 443.088 1835.46 442.566C1834.33 441.958 1833.2 441.262 1832.25 440.567C1831.29 439.784 1830.59 438.915 1829.98 437.958C1829.46 436.915 1829.12 435.785 1829.12 434.307C1829.12 431.612 1830.16 429.525 1832.16 427.96C1834.16 426.395 1836.77 425.699 1840.07 425.699C1842.85 425.699 1845.37 426.134 1847.55 427.178C1849.72 428.134 1851.72 429.525 1853.46 431.264L1857.55 426.395C1855.46 424.221 1852.94 422.483 1849.89 421.091C1846.94 419.787 1843.63 419.092 1840.07 419.092C1837.37 419.092 1834.94 419.527 1832.68 420.309C1830.42 421.091 1828.51 422.135 1826.85 423.526C1825.2 425.004 1823.9 426.656 1822.94 428.569C1822.07 430.481 1821.55 432.568 1821.55 434.742C1821.55 436.915 1821.99 438.828 1822.68 440.48C1823.38 442.132 1824.33 443.523 1825.46 444.74C1826.59 445.957 1827.9 446.914 1829.29 447.783C1830.77 448.652 1832.16 449.348 1833.55 449.957L1841.98 453.608C1843.37 454.304 1844.68 454.912 1845.9 455.521C1847.03 456.13 1848.07 456.825 1848.94 457.521C1849.81 458.303 1850.5 459.173 1851.02 460.216C1851.55 461.259 1851.81 462.563 1851.81 464.041C1851.81 466.911 1850.68 469.258 1848.59 470.997C1846.42 472.823 1843.37 473.692 1839.46 473.692C1836.42 473.692 1833.46 472.997 1830.59 471.692C1827.81 470.301 1825.29 468.562 1823.2 466.302ZM1914.32 455.173H1896.58L1899.37 446.131C1900.41 442.914 1901.45 439.61 1902.41 436.307C1903.36 433.09 1904.32 429.699 1905.19 426.308H1905.54C1906.49 429.699 1907.45 433.09 1908.41 436.307C1909.36 439.61 1910.41 442.914 1911.45 446.131L1914.32 455.173ZM1916.15 461.172L1921.71 479.169H1929.71L1909.8 420.222H1901.37L1881.37 479.169H1889.02L1894.67 461.172H1916.15ZM1956.49 466.302L1951.97 471.518C1954.57 474.214 1957.62 476.387 1961.09 477.952C1964.66 479.43 1968.49 480.213 1972.66 480.213C1975.79 480.213 1978.57 479.778 1981 478.909C1983.44 478.039 1985.53 476.909 1987.26 475.344C1989 473.779 1990.39 472.04 1991.26 470.04C1992.22 467.954 1992.66 465.78 1992.66 463.433C1992.66 461.259 1992.39 459.346 1991.7 457.695C1991.09 456.043 1990.22 454.652 1989.18 453.434C1988.13 452.217 1986.83 451.087 1985.35 450.13C1983.79 449.261 1982.22 448.392 1980.57 447.696L1972.22 444.131C1971.01 443.61 1969.79 443.088 1968.66 442.566C1967.53 441.958 1966.49 441.262 1965.53 440.567C1964.57 439.784 1963.79 438.915 1963.27 437.958C1962.66 436.915 1962.4 435.785 1962.4 434.307C1962.4 431.612 1963.36 429.525 1965.36 427.96C1967.44 426.395 1970.05 425.699 1973.35 425.699C1976.14 425.699 1978.57 426.134 1980.74 427.178C1982.92 428.134 1984.92 429.525 1986.74 431.264L1990.83 426.395C1988.66 424.221 1986.13 422.483 1983.18 421.091C1980.14 419.787 1976.92 419.092 1973.35 419.092C1970.66 419.092 1968.22 419.527 1965.96 420.309C1963.7 421.091 1961.7 422.135 1960.05 423.526C1958.4 425.004 1957.18 426.656 1956.23 428.569C1955.27 430.481 1954.84 432.568 1954.84 434.742C1954.84 436.915 1955.18 438.828 1955.88 440.48C1956.66 442.132 1957.53 443.523 1958.66 444.74C1959.88 445.957 1961.09 446.914 1962.57 447.783C1963.96 448.652 1965.44 449.348 1966.75 449.957L1975.27 453.608C1976.66 454.304 1977.88 454.912 1979.09 455.521C1980.31 456.13 1981.35 456.825 1982.22 457.521C1983.09 458.303 1983.79 459.173 1984.31 460.216C1984.74 461.259 1985 462.563 1985 464.041C1985 466.911 1983.96 469.258 1981.79 470.997C1979.61 472.823 1976.66 473.692 1972.75 473.692C1969.7 473.692 1966.75 472.997 1963.88 471.692C1961.01 470.301 1958.57 468.562 1956.49 466.302ZM2004.31 420.222V479.169H2039.17V472.823H2011.78V451.348H2034.13V445.001H2011.78V426.482H2038.3V420.222H2004.31ZM2059.17 448.131V426.221H2068.99C2073.6 426.221 2077.16 427.004 2079.6 428.569C2082.12 430.134 2083.34 432.829 2083.34 436.741C2083.34 440.567 2082.12 443.436 2079.6 445.349C2077.16 447.174 2073.6 448.131 2068.99 448.131H2059.17ZM2084.03 479.169H2092.47L2077.6 453.434C2081.6 452.478 2084.81 450.565 2087.16 447.783C2089.6 445.001 2090.81 441.349 2090.81 436.741C2090.81 433.698 2090.29 431.09 2089.25 429.003C2088.21 426.917 2086.81 425.178 2084.99 423.874C2083.16 422.57 2080.99 421.613 2078.38 421.005C2075.86 420.483 2073.08 420.222 2070.12 420.222H2051.69V479.169H2059.17V454.304H2069.86L2084.03 479.169ZM2094.55 420.222L2113.42 479.169H2122.11L2140.89 420.222H2133.24L2123.77 452.043C2122.72 455.521 2121.85 458.825 2120.98 461.781C2120.11 464.824 2119.16 468.041 2118.11 471.518H2117.77C2116.64 468.041 2115.59 464.824 2114.81 461.781C2114.03 458.825 2113.07 455.521 2112.03 452.043L2102.55 420.222H2094.55ZM2148.98 420.222V479.169H2156.37V420.222H2148.98ZM2169.15 449.696C2169.15 454.478 2169.85 458.738 2171.15 462.563C2172.37 466.389 2174.19 469.606 2176.54 472.214C2178.8 474.822 2181.5 476.822 2184.71 478.213C2187.84 479.517 2191.23 480.213 2194.97 480.213C2198.8 480.213 2202.1 479.517 2205.06 478.039C2208.01 476.474 2210.62 474.388 2212.97 471.692L2208.71 467.084C2206.8 469.258 2204.8 470.823 2202.71 471.953C2200.54 473.083 2198.01 473.692 2195.15 473.692C2192.36 473.692 2189.84 473.083 2187.58 471.953C2185.32 470.823 2183.41 469.258 2181.84 467.084C2180.28 464.998 2179.06 462.476 2178.19 459.52C2177.32 456.564 2176.89 453.173 2176.89 449.522C2176.89 445.87 2177.32 442.566 2178.28 439.61C2179.15 436.654 2180.45 434.133 2182.02 432.133C2183.67 430.047 2185.58 428.482 2187.84 427.351C2190.19 426.221 2192.71 425.699 2195.49 425.699C2198.01 425.699 2200.28 426.134 2202.1 427.178C2204.01 428.134 2205.75 429.438 2207.32 431.177L2211.49 426.395C2209.75 424.482 2207.58 422.743 2204.88 421.352C2202.19 419.874 2199.06 419.092 2195.41 419.092C2191.67 419.092 2188.19 419.787 2184.97 421.265C2181.76 422.656 2178.97 424.656 2176.63 427.264C2174.28 429.96 2172.45 433.177 2171.15 436.915C2169.85 440.654 2169.15 444.914 2169.15 449.696ZM2223.92 420.222V479.169H2258.79V472.823H2231.4V451.348H2253.75V445.001H2231.4V426.482H2257.92V420.222H2223.92Z" fill="black"/>
<defs>
<clipPath id="clip0_1213_7944">
<rect width="521.659" height="554.484" fill="white" transform="translate(23.5293 23.5293)"/>
</clipPath>
<clipPath id="clip1_1213_7944">
<rect width="817.961" height="869.431" fill="white" transform="translate(23.5293 23.5293)"/>
</clipPath>
</defs>
</svg>
